<svg xmlns="http://www.w3.org/2000/svg" viewBox="0 0 118 48"><path d="M21.909 6.188c-1.37 1.622-3.563 2.9-5.755 2.718-.274-2.192.8-4.522 2.055-5.96C19.58 1.279 21.977.09 23.92 0c.227 2.284-.663 4.521-2.01 6.188m1.986 3.152c-3.174-.183-5.891 1.804-7.398 1.804-1.53 0-3.837-1.713-6.349-1.667-3.265.045-6.302 1.895-7.97 4.84-3.424 5.892-.89 14.615 2.421 19.41 1.622 2.376 3.563 4.979 6.12 4.888 2.42-.092 3.38-1.576 6.303-1.576 2.946 0 3.79 1.576 6.348 1.53 2.649-.046 4.316-2.375 5.937-4.75 1.85-2.694 2.604-5.32 2.65-5.457-.046-.046-5.116-1.987-5.162-7.833-.045-4.887 3.997-7.216 4.18-7.353-2.284-3.38-5.847-3.745-7.08-3.836m18.337-6.623v35.6h5.526v-12.17h7.65c6.988 0 11.897-4.796 11.897-11.738S62.487 2.717 55.591 2.717H42.232Zm5.526 4.659h6.371c4.796 0 7.536 2.557 7.536 7.056s-2.74 7.079-7.558 7.079h-6.349V7.376Zm29.64 31.216c3.472 0 6.691-1.759 8.153-4.544h.114v4.27h5.115v-17.72c0-5.138-4.11-8.45-10.436-8.45-5.868 0-10.207 3.357-10.367 7.97h4.978c.411-2.192 2.444-3.63 5.23-3.63 3.38 0 5.275 1.575 5.275 4.475v1.964l-6.897.41c-6.417.389-9.887 3.015-9.887 7.582 0 4.613 3.585 7.673 8.723 7.673Zm1.485-4.225c-2.946 0-4.818-1.416-4.818-3.585 0-2.238 1.804-3.54 5.252-3.745l6.143-.388v2.01c0 3.333-2.832 5.708-6.577 5.708ZM97.608 48c5.39 0 7.924-2.055 10.139-8.29l9.705-27.219h-5.618l-6.508 21.031h-.114l-6.508-21.031h-5.777l9.362 25.918-.502 1.576c-.845 2.672-2.215 3.7-4.659 3.7-.433 0-1.278-.047-1.62-.092v4.27c.319.091 1.689.137 2.1.137Z"/></svg>