<svg xmlns="http://www.w3.org/2000/svg" viewBox="0 0 118 48"><path d="M21.9 6.2c-1.4 1.6-3.6 2.9-5.8 2.7-.3-2.2.8-4.5 2.1-6C19.6 1.2 22 0 23.9 0c.2 2.3-.7 4.5-2 6.2m2 3.1c-3.2-.2-5.9 1.8-7.4 1.8s-3.8-1.7-6.3-1.7c-3.3 0-6.3 1.9-8 4.8-3.4 5.9-.9 14.6 2.4 19.4 1.6 2.4 3.6 5 6.1 4.9 2.4 0 3.4-1.6 6.3-1.6s3.8 1.6 6.3 1.5c2.6 0 4.3-2.4 5.9-4.7 1.8-2.7 2.6-5.3 2.6-5.5 0 0-5.1-2-5.2-7.8 0-4.9 4-7.2 4.2-7.4-2.3-3.4-5.8-3.7-7.1-3.8m18.5-6.5v35.6h5.5V26.1h7.6c7 0 11.9-4.8 11.9-11.7S62.4 2.7 55.5 2.7H42.1Zm5.6 4.7h6.4c4.8 0 7.5 2.6 7.5 7.1s-2.7 7.1-7.6 7.1h-6.3V7.4Zm29.6 31.2c3.5 0 6.7-1.8 8.2-4.5h.1v4.3h5.1V20.7c0-5.1-4.1-8.4-10.4-8.4s-10.2 3.4-10.4 8h5c.4-2.2 2.4-3.6 5.2-3.6s5.3 1.6 5.3 4.5v2l-6.9.4c-6.4.4-9.9 3-9.9 7.6s3.6 7.7 8.7 7.7Zm1.5-4.2c-2.9 0-4.8-1.4-4.8-3.6s1.8-3.5 5.3-3.7l6.1-.4v2c0 3.3-2.8 5.7-6.6 5.7ZM97.6 48c5.4 0 7.9-2.1 10.1-8.3l9.7-27.2h-5.6l-6.5 21h-.1l-6.5-21h-5.8l9.4 25.9-.5 1.6c-.8 2.7-2.2 3.7-4.7 3.7h-1.6V48c.3 0 1.7.1 2.1.1Z"/></svg>