<svg version="1.1" id="Camada_1" xmlns="http://www.w3.org/2000/svg" x="0" y="0" viewBox="0 0 200 48" xml:space="preserve"><style>.st2{fill:#fff}</style><path id="Caminho_707" d="M186 0H23.4C10.7 0 .3 10.4.3 23.1v1.8C.3 37.6 10.7 48 23.4 48h142.5c12.7 0 23.1-10.4 23.1-23.1V3c0-1.6-1.3-3-3-3z" fill="#ffcb00"/><path id="Caminho_708" d="M196.7 0H34.1C21.3 0 11 10.4 11 23.1v1.8C11 37.6 21.3 48 34.1 48h142.5c12.7 0 23.1-10.4 23.1-23.1V3c0-1.6-1.4-3-3-3z" fill="#e3032e"/><g id="Grupo_1732"><path id="Caminho_718" class="st2" d="M134.3 15.4c0-.7.6-1.3 1.3-1.3h6.1c4.4 0 7.3 2.4 7.3 6.2v.1c0 4.2-3.5 6.4-7.6 6.4H137v5.5c0 .7-.6 1.3-1.3 1.3s-1.3-.6-1.3-1.3l-.1-16.9zm7.1 9.1c3 0 4.9-1.6 4.9-4 0-2.6-2-3.9-4.9-3.9h-4.6v8l4.6-.1z"/><path id="Caminho_719" class="st2" d="M149.7 29.3c0-3.1 2.5-4.6 6.1-4.6 1.4 0 2.9.2 4.2.6v-.5c0-2.4-1.5-3.6-4.1-3.6-1.2 0-2.4.2-3.5.7-.1 0-.3.1-.4.1-.6 0-1.1-.5-1.1-1.1 0-.5.3-.9.7-1 1.5-.6 3.1-1 4.7-1 1.7-.1 3.4.5 4.7 1.6 1.1 1.2 1.6 2.7 1.5 4.3v7.6c0 .7-.5 1.2-1.1 1.2-.6 0-1.2-.4-1.2-1.1v-1.1c-1.2 1.5-3 2.4-5 2.4-2.9 0-5.5-1.6-5.5-4.5zm10.4-1.1V27c-1.3-.4-2.6-.6-3.9-.6-2.5 0-3.9 1.1-3.9 2.8v.1c0 1.7 1.5 2.6 3.4 2.6 2.3-.1 4.4-1.6 4.4-3.7z"/><path id="Caminho_720" class="st2" d="M164.8 37.5c-.6-.2-.9-.8-.7-1.4.1-.4.5-.7 1-.8.2 0 .4 0 .5.1.5.2.9.3 1.4.2 1.2 0 1.9-.7 2.6-2.2l.1-.2-5.7-12.4c-.1-.2-.1-.4-.2-.6 0-.7.6-1.2 1.3-1.2.6 0 1.1.4 1.2 1l4.7 10.7 4.2-10.7c.2-.5.7-.9 1.2-.9.6 0 1.2.5 1.2 1.1 0 .2 0 .4-.1.6l-5.5 13c-1.2 3-2.6 4.1-4.8 4.1-.8 0-1.6-.1-2.4-.4z"/></g><path class="st2" d="M56 27.4c-.5 4.2-4.8 6-9.1 6-6.4 0-9.8-3.7-9.8-9.3 0-5.8 3.9-9.3 10.1-9.3 3.6 0 6.4 1.1 8.1 3.8L52.5 20c-.6-.8-1.3-1.6-2.2-2.1-1.1-.6-2.3-.9-3.5-.9-4.3 0-6.4 3.2-6.4 7.2s2.2 7.1 6.5 7.1c.5 0 1.1-.1 1.6-.2 1.1-.2 2.1-.7 2.9-1.4.6-.6 1-1.4 1.2-2.2H56zm9.6 6.2c5.3 0 8.2-2.5 8.2-7.1s-2.9-7.1-8.2-7.1c-5.3 0-8.2 2.6-8.2 7.1s2.9 7.1 8.2 7.1m0-12.2c3.2 0 5.3 2 5.3 5.1s-2.1 5.1-5.3 5.1c-3.2 0-5.3-2-5.3-5.1s2-5.1 5.3-5.1m14.2.5H84V20h-4.2v-1.1c0-2 .8-2.8 2.7-2.8.6 0 1.1.1 1.7.2h.1v-2h-.1c-.8-.1-1.6-.2-2.4-.2-3.3 0-4.8 1.6-4.8 5.2v.7h-3.4v1.9H77v11.2h2.7l.1-11.2zm29.6-7.6V17h2.7v-2.8h-2.7zm2.7 5.7-2.7 1.2v11.9h2.7V20zm-25.9-5.7V17h2.7v-2.8h-2.7zm2.7 5.6-2.7 1.3v11.9h2.7V19.9zm32.2 13.7c4.9 0 7.3-1.4 7.3-4.3 0-1.9-1.1-3-3.7-3.5l-4.3-.8c-1.9-.4-2.6-.9-2.6-1.8 0-1.1 1.5-1.9 3.8-1.9 2 0 3.1.5 3.5 1.6v.1l2.4-1.1v-.1c-1-2-3.8-2.4-6-2.4-4.1 0-6.4 1.5-6.4 4.1 0 3 3.4 3.5 6.4 4 2.2.4 4.1.7 4.1 1.9 0 1.4-1.5 2.2-4.2 2.2-2.5 0-3.8-.7-4.1-2.2v-.1l-2.6 1.2v.1c.8 1.9 3.1 3 6.4 3m-22.7 0c2.1.1 4.1-.7 5.6-2.2 0 .6.1 1.1.1 1.6v.1h2.7V33c-.1-1.2-.1-2.2-.1-3V14.3h-.1l-2.6 1.2v6.1c-1.5-1.4-3.5-2.2-5.6-2.1-3.9 0-7.1 3.2-7.1 7.1s3.1 7 7.1 7m.5-12.2c3.1 0 5 2 5 5.1s-2 5.1-5 5.1-5-2-5-5.1 2-5.1 5-5.1"/></svg>