<svg xmlns="http://www.w3.org/2000/svg" width="512" height="512" viewBox="0 0 512 512">
  <circle style="fill:#ffcc04" class="ifthen_icon_lighten_back" cx="256" cy="256" r="256"/>
  <circle style="fill:#e21e30" cx="289.06668" cy="256" r="222.93333"/>
  <path style="fill:#fff" class="ifthen_icon_nofill" d="M376.10003,291.79364c-5.42328,45.55555-52.06349,65.07939-98.7037,65.07939-69.41801,0-106.2963-40.13229-106.2963-100.87302,0-62.91005,42.30161-100.87303,109.5503-100.87303,39.04761,0,69.41801,11.93122,87.85714,41.21694l-30.37041,15.18516c-6.50792-8.67724-14.10052-17.3545-23.86245-22.77778-11.9312-6.50794-24.94708-9.7619-37.96297-9.7619-46.64021,0-69.41801,34.70901-69.41801,78.09526s23.86245,77.0106,70.50265,77.0106c5.42328,0,11.9312-1.08466,17.35448-2.16932,11.9312-2.16932,22.77776-7.5926,31.45505-15.18518,6.50792-6.50794,10.84656-15.18518,13.01588-23.86245h36.87833v-1.08466Z"/>
</svg>