<svg xmlns="http://www.w3.org/2000/svg" data-name="Layer 1" viewBox="0 0 48 48"><circle cx="24" cy="24" r="24" style="stroke-width:0;fill:#ffcc04" class="ifthen_icon_fill"/><circle cx="27.1" cy="24" r="20.9" style="fill:#e21e30;stroke-width:0" class="ifthen_icon_fill"/><path d="M35.3 27.4c-.5 4.3-4.9 6.1-9.3 6.1-6.5 0-10-3.8-10-9.5s4-9.5 10.3-9.5 6.5 1.1 8.3 3.9l-2.9 1.4c-.6-.8-1.3-1.6-2.2-2.1-1.1-.6-2.3-.9-3.6-.9-4.4 0-6.5 3.3-6.5 7.4s2.2 7.3 6.6 7.3 1.1-.1 1.6-.2c1.1-.2 2.1-.7 3-1.4.6-.6 1-1.4 1.2-2.2h3.5Z" style="fill:#fff;stroke-width:0" class="ifthen_icon_nofill"/></svg>