<svg xmlns="http://www.w3.org/2000/svg" viewBox="0 0 56 48"><path fill="#4376BB" d="M48.1 5v-.3c0-2.6-2.1-4.8-4.8-4.8h-38C2.6 0 .5 2.1.5 4.8v20.5c0 2.6 2.1 4.8 4.8 4.8h1.3v-2.3H5.3c-1.4 0-2.5-1.1-2.5-2.5V10.1h43v6.5h2.3V5zM2.8 5v-.2c0-1.4 1.1-2.5 2.5-2.5h38c1.4 0 2.5 1.1 2.5 2.5V5h-43z"/><path fill="none" d="M29.6 37.6h-6c-.6 0-1.1.5-1.1 1.1 0 .6.5 1.1 1.1 1.1h6c.6 0 1.1-.5 1.1-1.1.1-.5-.4-1.1-1.1-1.1zM19.7 25.8h-5.4c-.9 0-1.6.7-1.6 1.6v4.5c0 .9.7 1.6 1.6 1.6h5.4c.9 0 1.6-.7 1.6-1.6v-4.5c0-.9-.7-1.6-1.6-1.6zM19.5 37.6h-6c-.6 0-1.1.5-1.1 1.1 0 .6.5 1.1 1.1 1.1h6c.6 0 1.1-.5 1.1-1.1.1-.5-.5-1.1-1.1-1.1zM39.8 37.6h-6c-.6 0-1.1.5-1.1 1.1 0 .6.5 1.1 1.1 1.1h6c.6 0 1.1-.5 1.1-1.1 0-.5-.5-1.1-1.1-1.1zM49.9 37.6h-6c-.6 0-1.1.5-1.1 1.1 0 .6.5 1.1 1.1 1.1h6c.6 0 1.1-.5 1.1-1.1 0-.5-.5-1.1-1.1-1.1z"/><path fill="#4376BB" d="M50.7 17.9h-38c-1.7.1-3.1.8-3.9 2-.5.8-.8 1.7-.8 2.7V43.2c0 2.6 2.1 4.8 4.8 4.8h38c2.6 0 4.8-2.1 4.8-4.8V22.7c-.1-2.6-2.2-4.8-4.9-4.8zm-31.2 22h-6c-.6 0-1.1-.5-1.1-1.1 0-.6.5-1.1 1.1-1.1h6c.6 0 1.1.5 1.1 1.1.1.6-.5 1.1-1.1 1.1zm1.8-8.1c0 .9-.7 1.6-1.6 1.6h-5.4c-.9 0-1.6-.7-1.6-1.6v-4.5c0-.9.7-1.6 1.6-1.6h5.4c.9 0 1.6.7 1.6 1.6v4.5zm8.3 8.1h-6c-.6 0-1.1-.5-1.1-1.1 0-.6.5-1.1 1.1-1.1h6c.6 0 1.1.5 1.1 1.1.1.6-.4 1.1-1.1 1.1zm10.2 0h-6c-.6 0-1.1-.5-1.1-1.1 0-.6.5-1.1 1.1-1.1h6c.6 0 1.1.5 1.1 1.1 0 .6-.5 1.1-1.1 1.1zm10.1 0h-6c-.6 0-1.1-.5-1.1-1.1 0-.6.5-1.1 1.1-1.1h6c.6 0 1.1.5 1.1 1.1 0 .6-.5 1.1-1.1 1.1zm0-12.4h-11c-.6 0-1.1-.5-1.1-1.1 0-.6.5-1.1 1.1-1.1h11c.6 0 1.1.5 1.1 1.1 0 .6-.5 1.1-1.1 1.1z"/><g><path fill="#4376BB" d="M50.7 17.9h-38c-1.7.1-3.1.8-3.9 2-.5.8-.8 1.7-.8 2.7v20.5c0 2.6 2.1 4.8 4.8 4.8h38c2.6 0 4.8-2.1 4.8-4.8V22.6c-.1-2.5-2.2-4.7-4.9-4.7zm-31.2 22h-6c-.6 0-1.1-.5-1.1-1.1 0-.6.5-1.1 1.1-1.1h6c.6 0 1.1.5 1.1 1.1.1.6-.4 1.1-1.1 1.1zm1.8-8.1c0 .9-.7 1.6-1.6 1.6h-5.4c-.9 0-1.6-.7-1.6-1.5v-4.5c0-.9.7-1.6 1.6-1.6h5.4c.9 0 1.6.7 1.6 1.5v4.5zm8.4 8.1h-6c-.6 0-1.1-.5-1.1-1.1 0-.6.5-1.1 1.1-1.1h6c.6 0 1.1.5 1.1 1.1 0 .6-.5 1.1-1.1 1.1zm10.1 0h-6c-.6 0-1.1-.5-1.1-1.1 0-.6.5-1.1 1.1-1.1h6c.6 0 1.1.5 1.1 1.1 0 .6-.5 1.1-1.1 1.1zm10.1 0h-6c-.6 0-1.1-.5-1.1-1.1 0-.6.5-1.1 1.1-1.1h6c.6 0 1.1.5 1.1 1.1.1.6-.5 1.1-1.1 1.1zm0-12.4h-11c-.6 0-1.1-.5-1.1-1.1 0-.6.5-1.1 1.1-1.1h11c.6 0 1.1.5 1.1 1.1 0 .6-.5 1.1-1.1 1.1z"/></g></svg>