<svg xmlns="http://www.w3.org/2000/svg" width="511.99995" height="447" viewBox="0 0 511.99995 447">
  <path style="fill:#4376bb" d="M442.30847,47.41289v-2.78766C442.30847,20.46553,422.79488.02269,397.70594.02269H44.60251C19.51358.95192-.00002,20.46553-.00002,45.55446v190.49C-.00002,260.20417,19.51358,280.64699,44.60252,280.64699h12.07986v-21.37204h-12.07986c-13.00907,0-23.23049-10.22142-23.23049-23.23049V94.8031h399.5644v60.39927h21.37204V47.41289ZM21.37202,47.41289v-1.85844c0-13.00907,10.22142-23.23049,23.23049-23.23049h353.10342c13.00909,0,23.23049,10.22141,23.23049,23.23049v1.85844s-399.56441,0-399.56441,0Z"/>
  <path style="fill:none" class="ifthen_icon_nofill" d="M270.40287,350.33846h-55.75317c-5.57532,0-10.22142,4.6461-10.22142,10.2214s4.6461,10.2214,10.22142,10.2214h55.75317c5.57532,0,10.22142-4.6461,10.22142-10.2214.92922-4.6461-3.71687-10.2214-10.22142-10.2214ZM178.41014,240.69056h-50.17785c-8.36297,0-14.86752,6.50454-14.86752,14.86752v41.81488c0,8.36297,6.50454,14.86752,14.86752,14.86752h50.17785c8.36297,0,14.86752-6.50454,14.86752-14.86752v-41.81488c0-8.36297-6.50454-14.86752-14.86752-14.86752ZM176.55169,350.33846h-55.75317c-5.57532,0-10.22142,4.6461-10.22142,10.2214s4.6461,10.2214,10.22142,10.2214h55.75317c5.57532,0,10.22142-4.6461,10.22142-10.2214.92922-4.6461-4.6461-10.2214-10.22142-10.2214ZM365.18326,350.33846h-55.75317c-5.5753,0-10.2214,4.6461-10.2214,10.2214s4.6461,10.2214,10.2214,10.2214h55.75317c5.5753,0,10.2214-4.6461,10.2214-10.2214,0-4.6461-4.6461-10.2214-10.2214-10.2214ZM459.03445,350.33846h-55.75317c-5.5753,0-10.2214,4.6461-10.2214,10.2214s4.6461,10.2214,10.2214,10.2214h55.75317c5.5753,0,10.2214-4.6461,10.2214-10.2214,0-4.6461-4.6461-10.2214-10.2214-10.2214Z"/>
  <path style="fill:#4376bb" d="M466.4682,167.28221H113.36477c-15.79673.92922-28.80581,7.43375-36.23956,18.58439-4.6461,7.43375-7.43376,15.79674-7.43376,25.08894v191.41923c0,24.15969,19.51361,44.60253,44.60254,44.60253h353.10345c24.15969,0,44.60253-19.5136,44.60253-44.60253v-190.49001c-.92921-24.15971-20.44284-44.60253-45.53177-44.60255ZM176.55169,371.71054h-55.75317c-5.57532,0-10.22142-4.6461-10.22142-10.2214s4.6461-10.2214,10.22142-10.2214h55.75317c5.57532,0,10.22142,4.6461,10.22142,10.2214.92922,5.5753-4.6461,10.2214-10.22142,10.2214ZM193.27764,296.44375c0,8.36297-6.50454,14.86752-14.86752,14.86752h-50.17785c-8.36297,0-14.86752-6.50454-14.86752-14.86752v-41.81488c0-8.36297,6.50454-14.86752,14.86752-14.86752h50.17785c8.36297,0,14.86752,6.50454,14.86752,14.86752v41.81488ZM270.40285,371.71054h-55.75317c-5.57532,0-10.22142-4.6461-10.22142-10.2214s4.6461-10.2214,10.22142-10.2214h55.75317c5.57532,0,10.22142,4.6461,10.22142,10.2214.92922,5.5753-3.71687,10.2214-10.22142,10.2214ZM365.18326,371.71054h-55.75317c-5.5753,0-10.2214-4.6461-10.2214-10.2214s4.6461-10.2214,10.2214-10.2214h55.75317c5.5753,0,10.2214,4.6461,10.2214,10.2214s-4.6461,10.2214-10.2214,10.2214ZM459.03445,371.71054h-55.75317c-5.5753,0-10.2214-4.6461-10.2214-10.2214s4.6461-10.2214,10.2214-10.2214h55.75317c5.5753,0,10.2214,4.6461,10.2214,10.2214s-4.6461,10.2214-10.2214,10.2214ZM459.03445,256.48731h-102.21415c-5.5753,0-10.2214-4.6461-10.2214-10.22142s4.6461-10.22142,10.2214-10.22142h102.21415c5.5753,0,10.2214,4.6461,10.2214,10.22142s-4.6461,10.22142-10.2214,10.22142Z"/>
  <path style="fill:#4376bb" d="M466.4682,167.28221H113.36477c-15.79673.92922-28.80581,7.43375-36.23956,18.58439-4.6461,7.43375-7.43376,15.79674-7.43376,25.08894v190.48999c0,24.15969,19.51361,44.60253,44.60254,44.60253h353.10345c24.15969,0,44.60253-19.5136,44.60253-44.60253v-190.48999c-.92921-23.23049-20.44284-43.67331-45.53177-43.67333ZM176.55169,371.71054h-55.75317c-5.57532,0-10.22142-4.6461-10.22142-10.2214s4.6461-10.2214,10.22142-10.2214h55.75317c5.57532,0,10.22142,4.6461,10.22142,10.2214.92922,5.5753-3.71687,10.2214-10.22142,10.2214ZM193.27764,296.44375c0,8.36297-6.50454,14.86752-14.86752,14.86752h-50.17785c-8.36297,0-14.86752-6.50454-14.86752-13.93829v-41.81488c0-8.36297,6.50454-14.86752,14.86752-14.86752h50.17785c8.36297,0,14.86752,6.50454,14.86752,13.93829v41.81488ZM271.33208,371.71054h-55.75317c-5.57532,0-10.22142-4.6461-10.22142-10.2214s4.6461-10.2214,10.22142-10.2214h55.75317c5.57532,0,10.22142,4.6461,10.22142,10.2214s-4.6461,10.2214-10.22142,10.2214ZM365.18326,371.71054h-55.75317c-5.5753,0-10.2214-4.6461-10.2214-10.2214s4.6461-10.2214,10.2214-10.2214h55.75317c5.5753,0,10.2214,4.6461,10.2214,10.2214s-4.6461,10.2214-10.2214,10.2214ZM459.03445,371.71054h-55.75317c-5.5753,0-10.2214-4.6461-10.2214-10.2214s4.6461-10.2214,10.2214-10.2214h55.75317c5.5753,0,10.2214,4.6461,10.2214,10.2214.92921,5.5753-4.6461,10.2214-10.2214,10.2214ZM459.03445,256.48731h-102.21415c-5.5753,0-10.2214-4.6461-10.2214-10.22142s4.6461-10.22142,10.2214-10.22142h102.21415c5.5753,0,10.2214,4.6461,10.2214,10.22142s-4.6461,10.22142-10.2214,10.22142Z"/>
</svg>