<svg xmlns="http://www.w3.org/2000/svg" xmlns:xlink="http://www.w3.org/1999/xlink" id="Layer_1" version="1.1" viewBox="0 0 48 48"><defs><linearGradient id="linear-gradient" x1="25.1" x2="36.2" y1="40" y2="40" gradientTransform="matrix(1 0 0 -1 0 49.3)" gradientUnits="userSpaceOnUse"><stop offset="0" stop-color="#25a9e0"/><stop offset=".3" stop-color="#24a6de"/><stop offset=".5" stop-color="#239ed5"/><stop offset=".7" stop-color="#208fc8"/><stop offset=".9" stop-color="#1c7bb4"/><stop offset="1" stop-color="#17629d"/></linearGradient><linearGradient id="linear-gradient1" x1="29.4" x2="30" y1="49.3" y2="49.3" gradientTransform="matrix(1 0 0 -1 0 49.3)" gradientUnits="userSpaceOnUse"><stop offset="0" stop-color="#25a9e0"/><stop offset=".4" stop-color="#25a6de"/><stop offset=".6" stop-color="#239ed8"/><stop offset=".8" stop-color="#208fce"/><stop offset="1" stop-color="#1c7bbf"/><stop offset="1" stop-color="#1b75bb"/></linearGradient><linearGradient xlink:href="#linear-gradient" id="linear-gradient2" x1="26.2" x2="11.6" y1="28.7" y2="28.7"/><style>.st3{fill:#17629d}</style></defs><path d="M33.5 4.7H14l.5-3.3L16.4.1h14.4l1.7.6 1 4Z" class="st3"/><path d="M28.6 13.7c-.6 1.7-1.1 3.6-3.4 4.8l6.5-2.4c.8-.4 1.3-1.5 1.7-2.4 0 0 1.5-4.1 2.7-7.1C37.3 3.2 34.5.1 30.9.1h-.7c1.1.1 3.3.5 2.2 3.5" style="fill:url(#linear-gradient)"/><path d="M29.4 0h.6-.6Z" style="fill:url(#linear-gradient1)"/><path d="M21.5 32.9h4.1l-2.4 8.4c-1.7 4.5-5.8 6.7-9.9 6.8-.1 0-1.6-4.6-1.6-4.6H13c2.7 0 4.6-.2 5.8-3.4l2.7-7.1" class="st3"/><path d="m25.9 34-2.7 7.4c1-2.5-.4-4.7-1-6.3L12 7.5c-.8-2.8-.6-8.1 6.2-7.4 0 0-4.1-.5-2.4 4.6L26 31.9c.4.8.4 1.2 0 2.1Z" style="fill:url(#linear-gradient2)"/></svg>