<svg xmlns="http://www.w3.org/2000/svg" viewBox="0 0 122 48"><path d="M57.732 23.454v14.065h-4.466V2.776h11.838a10.694 10.694 0 0 1 7.665 3.007 9.656 9.656 0 0 1 3.2 7.332 9.624 9.624 0 0 1-3.2 7.377c-2.07 1.974-4.627 2.962-7.665 2.957l-7.372.005Zm0-16.4v12.132h7.483c1.66.05 3.26-.603 4.415-1.798a5.92 5.92 0 0 0 .117-8.374c-.04-.04-.076-.081-.117-.117a5.822 5.822 0 0 0-4.415-1.843h-7.483Zm28.526 5.919c3.3 0 5.903.881 7.812 2.643 1.909 1.762 2.86 4.182 2.86 7.25V37.52h-4.268v-3.3h-.192c-1.848 2.718-4.309 4.075-7.377 4.075-2.618 0-4.81-.775-6.572-2.33a7.438 7.438 0 0 1-2.643-5.822c0-2.46.932-4.415 2.79-5.868 1.858-1.453 4.339-2.182 7.448-2.182 2.648 0 4.835.486 6.546 1.453v-1.023a5.081 5.081 0 0 0-1.843-3.95 6.319 6.319 0 0 0-4.308-1.624c-2.491 0-4.466 1.053-5.92 3.154l-3.928-2.476c2.157-3.104 5.357-4.653 9.595-4.653Zm-5.777 17.27a3.573 3.573 0 0 0 1.478 2.912 5.446 5.446 0 0 0 3.468 1.164 7.132 7.132 0 0 0 5.023-2.086c1.478-1.392 2.218-3.022 2.218-4.9-1.393-1.11-3.332-1.667-5.823-1.667-1.813 0-3.327.436-4.537 1.312-1.22.89-1.827 1.97-1.827 3.265Zm40.955-16.495L106.536 48h-4.608l5.529-11.985-9.802-22.267h4.85l7.084 17.078h.096l6.89-17.078h4.861Z" style="fill:#5f6368"/><path d="M39.692 20.416c0-1.362-.112-2.719-.345-4.06H20.523v7.685h10.779a9.232 9.232 0 0 1-3.985 6.066v4.992h6.436c3.767-3.468 5.939-8.607 5.939-14.683Z" style="fill:#4285f4"/><path d="M20.523 39.924c5.387 0 9.923-1.767 13.23-4.82l-6.436-4.992c-1.792 1.215-4.096 1.909-6.794 1.909-5.205 0-9.626-3.51-11.205-8.238H2.69v5.144a19.954 19.954 0 0 0 17.833 10.997Z" style="fill:#34a853"/><path d="M9.318 23.783a11.959 11.959 0 0 1 0-7.64v-5.145H2.69a19.958 19.958 0 0 0 0 17.93l6.628-5.145Z" style="fill:#fbbc04"/><path d="M20.523 7.905a10.841 10.841 0 0 1 7.655 2.992l5.701-5.696a19.202 19.202 0 0 0-13.356-5.2A19.963 19.963 0 0 0 2.69 10.998l6.628 5.145c1.58-4.73 6-8.238 11.205-8.238Z" style="fill:#ea4335"/></svg>