<svg xmlns="http://www.w3.org/2000/svg" id="Layer_1" version="1.1" viewBox="0 0 122 48"><defs><style>.st4{fill:#5f6368}</style></defs><path d="M57.7 23.4v14h-4.5V2.7H65c2.9 0 5.6 1.1 7.7 3 2.1 1.8 3.2 4.5 3.2 7.4s-1.1 5.4-3.2 7.4-4.7 3-7.7 3l-7.2-.2Zm0-16.4v12.1h7.5c1.7 0 3.3-.6 4.4-1.8 2.4-2.3 2.4-6 .2-8.3l-.2-.2c-1.2-1.2-2.7-2-4.4-1.8h-7.5ZM86.2 13c3.3 0 5.9.9 7.8 2.7s2.9 4.2 2.9 7.2v14.5h-4.2v-3.3h-.2c-1.8 2.7-4.4 4.1-7.4 4.1s-4.8-.8-6.6-2.3c-1.7-1.5-2.7-3.6-2.7-5.9s.9-4.4 2.7-5.9 4.4-2.1 7.4-2.1 4.8.5 6.5 1.5v-1.1c0-1.5-.6-3-1.8-3.9-1.2-1.1-2.7-1.7-4.4-1.7-2.6 0-4.5 1.1-5.9 3.2l-3.9-2.4c2.4-3.2 5.6-4.7 9.8-4.7Zm-5.7 17.2c0 1.2.6 2.3 1.5 2.9 1.1.8 2.3 1.2 3.5 1.2 1.8 0 3.6-.8 5-2.1 1.5-1.4 2.3-3 2.3-4.8-1.4-1.1-3.3-1.7-5.9-1.7s-3.3.5-4.5 1.4c-1.2.8-1.8 1.8-1.8 3.2ZM121.4 13.7 106.5 48H102l5.6-11.9-9.8-22.2h4.8l7.1 17.1h.2l6.9-17.1h4.7v-.2Z" class="st4"/><path d="M39.7 20.4c0-1.4-.2-2.7-.3-4.1H20.5V24h10.7c-.5 2.4-1.8 4.7-3.9 6v5h6.5c3.8-3.5 5.9-8.6 5.9-14.6Z" style="fill:#4285f4"/><path d="M20.6 39.9c5.4 0 10-1.8 13.3-4.8l-6.5-5c-1.8 1.2-4.1 2-6.8 2-5.1 0-9.7-3.5-11.2-8.3H2.8v5.1c3.5 6.8 10.3 11 17.8 11Z" style="fill:#34a853"/><path d="M9.4 23.7c-.9-2.4-.9-5.1 0-7.7v-5.1H2.8c-2.9 5.6-2.9 12.2 0 17.9l6.6-5.1Z" style="fill:#fbbc04"/><path d="M20.6 7.9c2.9 0 5.6 1.1 7.7 3L34 5.2C30.4 1.8 25.6-.1 20.7 0 13.2 0 6.2 4.2 2.9 11l6.6 5.1c1.4-4.8 5.9-8.3 11-8.3Z" style="fill:#ea4335"/></svg>