<svg version="1.1" id="Layer_1" xmlns="http://www.w3.org/2000/svg" x="0" y="0" viewBox="0 0 200 52.1" xml:space="preserve"><style>.st0{fill:#17629d}</style><path class="st0" d="M153.3 25.9c0 9.3-3.6 14-10.8 14-3.4 0-5.9-1.1-7.7-3.2V52h-2.7V12.5h2.7v2.9c1.8-2.3 4.4-3.5 7.7-3.5 7.2 0 10.8 4.7 10.8 14zm-2.7 0c0-3.4-.5-6-1.4-7.8-1.3-2.3-3.5-3.5-6.6-3.5-2.1 0-3.9.6-5.4 1.9-1.5 1.3-2.2 3-2.2 5.1v8.5c0 2.1.7 3.8 2.2 5.1 1.5 1.3 3.3 1.9 5.4 1.9 3.1 0 5.4-1.2 6.6-3.5.9-1.7 1.4-4.3 1.4-7.7zM178.9 39.3l-2.5.7-1.1-2.7c-2.4 1.9-5.1 2.8-8.2 2.8-2.8 0-5-.7-6.8-2-1.9-1.5-2.8-3.5-2.8-6.2 0-2.5.9-4.5 2.8-6 1.7-1.3 3.8-2 6.4-2h4c2.2 0 3.7-.5 4.5-1.4V20c0-1.5-.7-2.8-2.1-3.8-1.3-.9-2.7-1.4-4.3-1.4-4 0-6.5 1.5-7.4 4.5l-2.6-.8c1.6-4.3 4.9-6.4 10.1-6.4 2.3 0 4.4.7 6.1 2.1 1.9 1.5 2.8 3.4 2.8 5.6v16.9l1.1 2.6zm-3.7-5.4v-8.1c-1.1.6-2.3.9-3.9.9h-4.7c-1.8 0-3.3.4-4.4 1.3-1.3.9-1.9 2.3-1.9 4 0 1.8.7 3.2 2.1 4.2 1.2.9 2.8 1.3 4.7 1.3 3.1 0 5.8-1.2 8.1-3.6zM197.8 16h-16.1l.4-2.7 1.6-1.1h11.9l1.4.5z"/><linearGradient id="SVGID_1_" gradientUnits="userSpaceOnUse" x1="190.8239" y1="19.8578" x2="200" y2="19.8578"><stop offset="0" stop-color="#25a9e0"/><stop offset=".3331" stop-color="#24a6de"/><stop offset=".5404" stop-color="#239ed5"/><stop offset=".7134" stop-color="#208fc8"/><stop offset=".8665" stop-color="#1c7bb4"/><stop offset="1" stop-color="#17629d"/></linearGradient><path d="M193.7 23.5c-.5 1.4-.9 3-2.8 4l5.4-2c.7-.3 1.1-1.2 1.4-2 0 0 1.2-3.4 2.2-5.9 1-2.8-1.3-5.4-4.3-5.4h-.6c.9.1 2.7.4 1.8 2.9" fill="url(#SVGID_1_)"/><linearGradient id="SVGID_2_" gradientUnits="userSpaceOnUse" x1="194.4103" y1="12.1986" x2="194.8773" y2="12.1986"><stop offset="0" stop-color="#25a9e0"/><stop offset=".3694" stop-color="#25a6de"/><stop offset=".5993" stop-color="#239ed8"/><stop offset=".7911" stop-color="#208fce"/><stop offset=".961" stop-color="#1c7bbf"/><stop offset="1" stop-color="#1b75bb"/></linearGradient><path d="M194.4 12.2h.5-.5z" fill="url(#SVGID_2_)"/><path class="st0" d="M187.9 39.3h3.4l-2 6.9c-1.4 3.7-4.8 5.5-8.2 5.6-.1 0-1.3-3.8-1.3-3.8h1.1c2.2 0 3.8-.2 4.8-2.8l2.2-5.9"/><linearGradient id="SVGID_3_" gradientUnits="userSpaceOnUse" x1="191.7215" y1="29.2038" x2="179.7113" y2="29.2038"><stop offset="0" stop-color="#25a9e0"/><stop offset=".3331" stop-color="#24a6de"/><stop offset=".5404" stop-color="#239ed5"/><stop offset=".7134" stop-color="#208fc8"/><stop offset=".8665" stop-color="#1c7bb4"/><stop offset="1" stop-color="#17629d"/></linearGradient><path d="M191.5 40.2l-2.2 6.1c.8-2.1-.3-3.9-.8-5.2L180 18.3c-.7-2.3-.5-6.7 5.1-6.1 0 0-3.4-.4-2 3.8l8.4 22.5c.3.7.3 1 0 1.7z" fill="url(#SVGID_3_)"/><g><linearGradient id="SVGID_4_" gradientUnits="userSpaceOnUse" x1="12.7137" y1="55.679" x2="12.7137" y2="7.4483"><stop offset="0" stop-color="#25a9e0"/><stop offset="1" stop-color="#17629d"/></linearGradient><path d="M25.4 5.7V0c-4 0-7 1-8.8 2.9-1.8 1.9-2.7 4.8-2.8 8.8h-8v-.1H0v28h5.8V16.7h8v22.9h5.6V16.7h5.2v-5.2h-5.2c0-2.2.5-3.8 1.2-4.6.9-.8 2.5-1.2 4.8-1.2z" fill="url(#SVGID_4_)"/><linearGradient id="SVGID_5_" gradientUnits="userSpaceOnUse" x1="34.798" y1="55.679" x2="34.798" y2="7.4483"><stop offset="0" stop-color="#25a9e0"/><stop offset="1" stop-color="#17629d"/></linearGradient><path d="M41.2 16.8h-3.9v15.4c0 1.1.2 1.6.7 1.6h2.5v5.7H38c-2.3 0-4.1-.9-5.3-2.8-.7-1.1-1-2.6-1-4.5V16.8h-3.4v-5.2h3.4V4.1h5.6v7.5h3.9v5.2z" fill="url(#SVGID_5_)"/><linearGradient id="SVGID_6_" gradientUnits="userSpaceOnUse" x1="57.7909" y1="55.679" x2="57.7909" y2="7.4483"><stop offset="0" stop-color="#25a9e0"/><stop offset="1" stop-color="#17629d"/></linearGradient><path d="M69.2 39.6h-5.8V24c0-2.4-.3-4.1-1-5.1-.9-1.3-2.5-2-4.8-2-2.2 0-3.8.8-4.7 2.3-.3.5-.5 1.1-.7 1.8v18.6h-5.8V0h5.8v12.4c1.7-.8 3.5-1.2 5.4-1.2 4.4 0 7.7 1.5 9.7 4.6 1.3 2 1.9 4.7 1.9 8.3v15.5z" fill="url(#SVGID_6_)"/><linearGradient id="SVGID_7_" gradientUnits="userSpaceOnUse" x1="85.8952" y1="55.679" x2="85.8952" y2="7.4482"><stop offset="0" stop-color="#25a9e0"/><stop offset="1" stop-color="#17629d"/></linearGradient><path d="M97.6 28H80c.2 1.8.5 3.2 1.1 4 1.1 1.7 3 2.6 5.7 2.6 2.3 0 4.3-.9 5.9-2.7l4.7 3.5c-2.9 3.2-6.4 4.8-10.5 4.8-4.8 0-8.4-1.7-10.7-5.1-1.4-2.2-2.2-5.2-2.2-9.3 0-4 .7-7.1 2.2-9.3 2.2-3.3 5.6-4.9 10.2-4.9 4.1 0 7.3 1.7 9.5 5 .9 1.3 1.5 3.2 1.6 5.5.2.8.2 2.8.1 5.9zm-5.9-5.6c-.2-1.4-.4-2.3-.7-2.7-1.1-1.6-2.6-2.4-4.7-2.4-3.5 0-5.5 1.7-6.2 5.1h11.6z" fill="url(#SVGID_7_)"/><linearGradient id="SVGID_8_" gradientUnits="userSpaceOnUse" x1="114.5146" y1="55.679" x2="114.5146" y2="7.4483"><stop offset="0" stop-color="#25a9e0"/><stop offset="1" stop-color="#17629d"/></linearGradient><path d="M126 39.6h-5.8V23.7c0-2.3-.3-4-1-4.9-.9-1.3-2.5-1.9-4.8-1.9s-3.9.8-4.8 2.3c-.3.5-.5 1-.7 1.7v18.7h-5.8V12h5.8v.9c1.7-.8 3.6-1.2 5.4-1.2 4.6 0 7.8 1.4 9.7 4.1 1.3 1.9 1.9 4.6 1.9 8v15.8z" fill="url(#SVGID_8_)"/><linearGradient id="SVGID_9_" gradientUnits="userSpaceOnUse" x1="2.781" y1="55.6785" x2="2.781" y2="7.4484"><stop offset="0" stop-color="#25a9e0"/><stop offset="1" stop-color="#17629d"/></linearGradient><path fill="url(#SVGID_9_)" d="M0 4.1h5.6v5.6H0z"/></g></svg>