<svg xmlns="http://www.w3.org/2000/svg" viewBox="0 0 228 48"><path d="M10.4 0h31.8c2.2 0 4.1 1.9 4.1 4.3v2.1c0 2.9-3.9 2.9-3.9 0V5.3C42.3 4.5 41.7 4 41 4H9.1c-.7 0-1.3.5-1.3 1.3v1.1c0 2.9-3.8 2.9-3.8.1V4.3C4.1 1.9 5.9 0 8.1 0h2.3zM25 48h20.6c4.7 0 4.8-5 4.3-7.5-.3-1.7-3.1-1.6-3.4 0v1.9c0 .9-.7 1.6-1.6 1.6H5.3c-.9 0-1.6-.7-1.6-1.6v-1.9c-.3-1.6-3.1-1.7-3.4 0C-.2 43-.1 48 4.6 48H25z" fill-rule="evenodd" clip-rule="evenodd" fill="#4175ba"/><path d="M37.7 22H41c1.5-.2 2.7-1.5 2.7-3.1 0-1.7-1.4-3.1-3.1-3.1H34v16.4h8.4c1.8 0 3.2-1.5 3.2-3.2 0-1.8-1.5-3.2-3.2-3.2H37.7c-1 0-1.8-.8-1.8-1.8 0-1.1.8-2 1.8-2zm7.8 1.6c2.2 1 3.7 3.2 3.7 5.6 0 3.5-3 6.3-6.7 6.3H32.1c-1 0-1.8-.7-1.8-1.7V14.2c0-1 .8-1.7 1.7-1.7h8.6c3.6 0 6.6 3 6.6 6.6.1 1.7-.6 3.4-1.7 4.5z" fill-rule="evenodd" clip-rule="evenodd"/><path d="M28.7 33.6c.1 1.1-.7 2.2-1.8 2.3-1.1.1-2.2-.7-2.3-1.8l-1.7-15.7-6 15.3c-.1.2-.3.4-.4.5-.1.1-.2.2-.4.3-.8.5-1 .5-1.2.5-.2 0-.5-.1-.7-.1-.1-.1-.2-.1-.3-.2l-.1-.1h-.1l-.1-.1-.1-.1c-.1-.1-.2-.2-.2-.3l-6-15.4-2.1 15.4c-.1 1.1-1.1 2-2.3 1.8-1.1-.1-2-1.1-1.8-2.3l2-18.5c0-.2.1-.4.1-.6.1-.2.1-.4.3-.6.5-1 1.5-1.6 2.6-1.8h.6c.2 0 .4 0 .6.1 1.1.3 2 1 2.4 2.1l5.1 13.1L20 14.2c.4-1.1 1.3-1.8 2.4-2.1.2 0 .4-.1.6-.1h.6c1.1.2 2.1.8 2.6 1.8l.3.6c.1.2.1.4.1.6l2.1 18.6z"/><g><path d="M99 15.8c0-1 .8-1.8 1.8-1.8s1.8.8 1.8 1.8v10c0 2.3-.9 4.4-2.4 5.9s-3.6 2.4-5.9 2.4c-2.3 0-4.4-.9-5.9-2.4S86 28.1 86 25.8v-10c0-1 .8-1.8 1.8-1.8s1.8.8 1.8 1.8v10c0 1.3.5 2.4 1.4 3.3.8.8 2 1.4 3.3 1.4 1.3 0 2.4-.5 3.3-1.4.8-.8 1.4-2 1.4-3.3v-10zM116.5 30.4c1 0 1.8.8 1.8 1.8s-.8 1.8-1.8 1.8h-5.1c-1.9 0-3.7-.8-4.9-2-1.3-1.3-2-3-2-4.9V15.8c0-1 .8-1.8 1.8-1.8s1.8.8 1.8 1.8v11.4c0 .9.4 1.7 1 2.3.6.6 1.4 1 2.3 1h5.1zM85.4 32c.1 1-.6 1.9-1.6 2.1-1 .1-1.9-.6-2.1-1.6l-1.6-13.3-5.7 13.1c-.4.9-1.5 1.4-2.4 1-.5-.2-.8-.5-1-1l-5.7-13.1-1.6 13.3c-.1 1-1 1.7-2.1 1.6-1-.1-1.7-1-1.6-2.1l2-15.4c.1-1 .7-1.8 1.6-2.3.1-.1.2-.1.4-.2 0 0 .1 0 .1-.1.2 0 .3-.1.5-.1 1-.1 1.9.2 2.6.8l.4.4c.1.1.2.2.2.3 0 .1.1.1.1.2l4.8 11.1 4.8-11.1c.4-.9 1.2-1.5 2.2-1.8.2 0 .4-.1.5-.1h.5c1 .1 1.8.7 2.3 1.5.1.2.2.3.2.5 0 .1.1.2.1.4v.2L85.4 32zM124.6 32.2c0 1-.8 1.8-1.8 1.8s-1.8-.8-1.8-1.8V17.6h-5.3c-1 0-1.8-.8-1.8-1.8s.8-1.8 1.8-1.8h14.2c1 0 1.8.8 1.8 1.8s-.8 1.8-1.8 1.8h-5.3v14.6zM136.1 32.2c0 1-.8 1.8-1.8 1.8s-1.8-.8-1.8-1.8V15.8c0-1 .8-1.8 1.8-1.8s1.8.8 1.8 1.8v16.4zM174 32c.1 1-.6 1.9-1.6 2.1-1 .1-1.9-.6-2.1-1.6l-.7-5.2h-6.4c-1 0-1.8-.8-1.8-1.8s.8-1.8 1.8-1.8h5.9l-.2-1.4v-.1c0-.3-.1-.6-.2-.9-.1-.4-.2-.7-.4-1-.7-1.5-2.1-2.5-3.7-2.5-.3 0-.6 0-.9.1-.3.1-.6.2-.8.3-1.4.7-2.4 2.3-2.6 4.1l-1.2 10.3c-.1 1-1 1.7-2 1.6-1-.1-1.7-1-1.6-2l1.2-10.3c.3-3 2-5.7 4.6-7 .5-.3 1-.5 1.6-.6.6-.1 1.2-.2 1.8-.2 3.2 0 5.7 1.9 7 4.5.3.5.5 1 .6 1.6l.3 1.5v.2L174 32zM179.7 32.2c0 1-.8 1.8-1.8 1.8s-1.8-.8-1.8-1.8V16.9v-.3c0-.2.1-.4.1-.6 0-.1.1-.2.2-.3.3-.6.8-1 1.4-1.2.1 0 .2-.1.3-.1H178.7c.8 0 1.5.4 2 1l9.8 12.6V15.8c0-1 .8-1.8 1.8-1.8s1.8.8 1.8 1.8V31c0 .8-.4 1.5-1 2-.1.1-.2.2-.4.3-.1 0-.2.1-.2.1s-.1 0-.2.1c-.7.2-1.4.2-2-.1-.1 0-.2-.1-.2-.1-.1-.1-.2-.2-.4-.3-.1-.1-.2-.1-.2-.2l-.1-.1-9.8-12.6v12.1zM208.6 30.4c1 0 1.8.8 1.8 1.8s-.8 1.8-1.8 1.8h-5.4c-2 0-3.8-.8-5.2-2.1-1.3-1.3-2.1-3.1-2.1-5.1v-5.6c0-2 .8-3.8 2.1-5.2 1.3-1.3 3.1-2.1 5.1-2.1h5.4c1 0 1.8.8 1.8 1.8s-.8 1.8-1.8 1.8h-5.4c-1 0-1.9.4-2.5 1.1-.7.7-1.1 1.6-1.1 2.5v5.6c0 1 .4 1.9 1.1 2.5.7.7 1.6 1.1 2.5 1.1h5.5zM219.3 13.9c2.4 0 4.5.9 6.1 2.4 1.6 1.5 2.6 3.6 2.6 5.9v3.4c0 2.3-1 4.4-2.6 5.9s-3.7 2.4-6.1 2.4c-2.4 0-4.5-.9-6.1-2.4-1.6-1.5-2.6-3.6-2.6-5.9v-3.4c0-2.3 1-4.4 2.6-5.9 1.6-1.4 3.7-2.4 6.1-2.4zm0 3.7c-1.4 0-2.6.5-3.5 1.4-.9.8-1.4 2-1.4 3.3v3.4c0 1.3.5 2.4 1.4 3.3.9.9 2.1 1.4 3.5 1.4s2.6-.5 3.5-1.4c.9-.8 1.4-2 1.4-3.3v-3.4c0-1.3-.5-2.4-1.4-3.3-.9-.8-2.2-1.4-3.5-1.4zM137.6 23.9v-8c0-.3.1-.5.2-.7.1-.2.2-.5.4-.6.3-.3.7-.5 1.2-.5H146.6c1.6 0 3.1.7 4.2 1.7 1.1 1.1 1.7 2.5 1.7 4.2 0 1.2-.3 2.2-.9 3.1.4.2.7.5 1 .8l.1.1c1 1.1 1.6 2.5 1.6 4.1 0 1.7-.7 3.2-1.8 4.3-1.1 1.1-2.6 1.8-4.2 1.8h-9c-1 0-1.8-.8-1.8-1.8v-8.5h.1zm3.7-6.3v12.8h7.1c.6 0 1.2-.3 1.6-.7.4-.4.7-1 .7-1.6 0-.6-.2-1.1-.6-1.6l-.1-.1c-.4-.4-1-.7-1.6-.7H146c-1 0-1.8-.8-1.8-1.8s.8-1.8 1.8-1.8H146.9c.5 0 1-.3 1.4-.6.4-.4.7-1 .7-1.6 0-.6-.3-1.2-.7-1.6-.4-.4-1-.7-1.6-.7h-5.4z"/></g></svg>