<svg xmlns="http://www.w3.org/2000/svg" viewBox="0 0 50 48"><path d="M10.3 0h31.8c2.2 0 4.1 1.9 4.1 4.3v2.1c0 2.9-3.9 2.9-3.9 0V5.3c0-.7-.6-1.3-1.3-1.3H9c-.7 0-1.3.5-1.3 1.3v1.1c0 2.9-3.7 2.8-3.7 0V4.3C4 1.9 5.8 0 8 0h2.3zm14.6 48h20.6c4.7 0 4.8-5 4.3-7.5-.3-1.7-3.1-1.6-3.4 0v1.9c0 .9-.7 1.6-1.6 1.6H5.2c-.9 0-1.6-.7-1.6-1.6v-1.9c-.3-1.6-3.1-1.7-3.4 0C-.3 43-.2 48 4.5 48H24.9z" fill-rule="evenodd" clip-rule="evenodd" fill="#4175ba"/><path d="M37.6 22h3.3c1.5-.2 2.7-1.5 2.7-3.1 0-1.7-1.4-3.1-3.1-3.1h-6.6v16.4h8.4c1.8 0 3.2-1.5 3.2-3.2 0-1.8-1.5-3.2-3.2-3.2h-4.6c-1 0-1.8-.8-1.8-1.8-.1-1.1.7-2 1.7-2zm7.8 1.6c2.2 1 3.7 3.2 3.7 5.6 0 3.5-3 6.3-6.7 6.3H32c-1 0-1.8-.7-1.8-1.7V14.2c0-1 .8-1.7 1.7-1.7h8.6c3.6 0 6.6 3 6.6 6.6.1 1.7-.6 3.4-1.7 4.5z" fill-rule="evenodd" clip-rule="evenodd"/><path d="M28.6 33.6c.1 1.1-.7 2.2-1.8 2.3-1.1.1-2.2-.7-2.3-1.8l-1.7-15.7-6 15.3c-.1.2-.3.4-.4.5-.1.1-.2.2-.4.3-.7.5-1 .5-1.2.5-.2 0-.5-.1-.7-.1-.1-.1-.2-.1-.3-.2l-.1-.1h-.1l-.1-.1-.1-.1c-.3-.2-.4-.3-.4-.4L7 18.6 5.1 34.1c-.1 1.1-1.1 2-2.3 1.8-1.1-.1-2-1.1-1.8-2.3l2-18.5c0-.2.1-.4.1-.6.1-.2.1-.4.3-.6.5-1 1.5-1.6 2.6-1.8h.6c.2 0 .4 0 .6.1 1.1.3 2 1 2.4 2.1l5.1 13.1 5.1-13.1c.4-1.1 1.3-1.8 2.4-2.1.2 0 .4-.1.6-.1h.6c1.1.2 2.1.8 2.6 1.8l.3.6c.1.2.1.4.1.6l2.2 18.5z"/></svg>