<?xml version="1.0" encoding="UTF-8"?>
<svg id="NakedCat_logo" data-name="NakedCat logo" xmlns="http://www.w3.org/2000/svg" viewBox="0 0 417.24 262.63">
  <defs>
    <style>
      .cls-1 {
        fill: #0082c7;
      }

      .cls-2 {
        fill: #bea9aa;
      }

      .cls-3 {
        fill: #b19b9e;
      }

      .cls-4 {
        fill: #dec8c4;
      }

      .cls-5 {
        fill: #756365;
      }

      .cls-6 {
        fill: #958087;
      }
    </style>
  </defs>
  <g id="tag">
    <g id="WORDPRESS">
      <path class="cls-1" d="M294.18,209.67l-5.88,16.97h-1.65l-4.8-13.89-4.82,13.89h-1.63l-5.91-16.97h1.98l4.77,14.18,4.89-14.18,1.49.02,4.82,14.2,4.82-14.22h1.91Z"/>
      <path class="cls-1" d="M299.24,225.78c-1.15-.7-2.04-1.7-2.66-3.01-.62-1.31-.93-2.85-.93-4.61s.31-3.32.92-4.62c.61-1.3,1.5-2.3,2.65-3,1.15-.7,2.51-1.05,4.09-1.05s2.94.35,4.09,1.05c1.15.7,2.03,1.7,2.65,3,.61,1.3.92,2.83.92,4.6s-.31,3.32-.93,4.62c-.62,1.3-1.51,2.31-2.66,3.01-1.15.71-2.51,1.06-4.06,1.06s-2.91-.35-4.06-1.05ZM307.46,223.32c.99-1.22,1.49-2.95,1.49-5.19s-.49-3.96-1.48-5.17c-.98-1.21-2.37-1.81-4.17-1.81s-3.19.61-4.18,1.82-1.49,2.94-1.49,5.16.5,3.97,1.49,5.19,2.39,1.83,4.18,1.83,3.17-.61,4.16-1.83Z"/>
      <path class="cls-1" d="M327.29,226.64h-2.06l-2.08-5.65c-.25-.7-.6-1.17-1.05-1.41-.45-.24-1.08-.36-1.9-.36h-4.2v7.41h-1.91v-16.97h6.69c1.81,0,3.2.4,4.17,1.22.97.81,1.45,1.98,1.45,3.5,0,1.11-.29,2.05-.86,2.8s-1.41,1.29-2.49,1.61c.49.08.91.29,1.25.63.35.34.64.83.87,1.47l2.13,5.74ZM320.6,217.6c2.58,0,3.88-1.06,3.88-3.19,0-1.05-.32-1.83-.95-2.35-.63-.52-1.61-.77-2.93-.77h-4.61v6.31h4.61Z"/>
      <path class="cls-1" d="M330.03,209.67h5.65c2.69,0,4.78.73,6.25,2.2s2.21,3.55,2.21,6.25-.74,4.81-2.21,6.29-3.56,2.22-6.25,2.22h-5.65v-16.97ZM335.55,224.97c2.17,0,3.81-.57,4.9-1.72s1.64-2.85,1.64-5.12c0-4.53-2.18-6.79-6.55-6.79h-3.59v13.63h3.59Z"/>
      <path class="cls-1" d="M347.23,209.67h6.71c1.73,0,3.08.42,4.05,1.26s1.45,2,1.45,3.48-.49,2.64-1.46,3.49c-.98.85-2.32,1.27-4.04,1.27h-4.77v7.46h-1.94v-16.97ZM353.77,217.56c1.24,0,2.18-.27,2.81-.81.63-.54.95-1.32.95-2.34s-.32-1.79-.95-2.32c-.63-.53-1.57-.8-2.81-.8h-4.61v6.27h4.61Z"/>
      <path class="cls-1" d="M375.39,226.64h-2.06l-2.08-5.65c-.25-.7-.6-1.17-1.05-1.41-.45-.24-1.08-.36-1.9-.36h-4.2v7.41h-1.91v-16.97h6.69c1.81,0,3.2.4,4.17,1.22.97.81,1.45,1.98,1.45,3.5,0,1.11-.29,2.05-.86,2.8s-1.41,1.29-2.49,1.61c.49.08.91.29,1.25.63.35.34.64.83.87,1.47l2.13,5.74ZM368.7,217.6c2.58,0,3.88-1.06,3.88-3.19,0-1.05-.32-1.83-.95-2.35-.63-.52-1.61-.77-2.93-.77h-4.61v6.31h4.61Z"/>
      <path class="cls-1" d="M378.13,209.67h10.63v1.62h-8.72v5.91h8.25v1.64h-8.25v6.17h8.72v1.62h-10.63v-16.97Z"/>
      <path class="cls-1" d="M390.42,224.68l.73-1.5c.83.71,1.69,1.22,2.55,1.52.87.3,1.87.45,3.02.45,1.35,0,2.4-.27,3.13-.8.73-.53,1.1-1.28,1.1-2.25,0-.57-.18-1.04-.53-1.39-.35-.36-.82-.64-1.39-.85-.58-.21-1.34-.42-2.3-.64-1.29-.29-2.35-.6-3.19-.93-.84-.33-1.51-.81-2.03-1.44-.52-.63-.78-1.45-.78-2.47s.25-1.82.76-2.56,1.22-1.31,2.14-1.73c.92-.41,2-.62,3.23-.62,1.16,0,2.25.18,3.26.55,1.01.37,1.86.9,2.55,1.6l-.76,1.5c-.79-.68-1.59-1.18-2.4-1.5-.81-.32-1.7-.48-2.66-.48-1.31,0-2.33.28-3.07.85-.74.56-1.11,1.34-1.11,2.32,0,.86.32,1.5.97,1.93.65.43,1.64.8,2.98,1.12,1.45.35,2.59.67,3.41.96s1.52.74,2.07,1.33c.55.6.83,1.39.83,2.37s-.25,1.79-.76,2.51c-.5.72-1.23,1.28-2.16,1.68-.94.4-2.04.6-3.3.6-2.63,0-4.73-.72-6.28-2.14Z"/>
      <path class="cls-1" d="M404.71,224.68l.73-1.5c.83.71,1.69,1.22,2.55,1.52.87.3,1.87.45,3.02.45,1.35,0,2.4-.27,3.13-.8.73-.53,1.1-1.28,1.1-2.25,0-.57-.18-1.04-.53-1.39-.35-.36-.82-.64-1.39-.85-.58-.21-1.34-.42-2.3-.64-1.29-.29-2.35-.6-3.19-.93-.84-.33-1.51-.81-2.03-1.44-.52-.63-.78-1.45-.78-2.47s.25-1.82.76-2.56,1.22-1.31,2.14-1.73c.92-.41,2-.62,3.23-.62,1.16,0,2.25.18,3.26.55,1.01.37,1.86.9,2.55,1.6l-.76,1.5c-.79-.68-1.59-1.18-2.4-1.5-.81-.32-1.7-.48-2.66-.48-1.31,0-2.33.28-3.07.85-.74.56-1.11,1.34-1.11,2.32,0,.86.32,1.5.97,1.93.65.43,1.64.8,2.98,1.12,1.45.35,2.59.67,3.41.96s1.52.74,2.07,1.33c.55.6.83,1.39.83,2.37s-.25,1.79-.76,2.51c-.5.72-1.23,1.28-2.16,1.68-.94.4-2.04.6-3.3.6-2.63,0-4.73-.72-6.28-2.14Z"/>
    </g>
    <g id="FOR">
      <path class="cls-1" d="M270.79,183.91h10.4v1.64h-8.48v5.89h8.01v1.64h-8.01v7.79h-1.91v-16.97Z"/>
      <path class="cls-1" d="M286.27,200.02c-1.15-.7-2.04-1.7-2.66-3.01-.62-1.31-.93-2.85-.93-4.61s.31-3.32.92-4.62c.61-1.3,1.5-2.3,2.65-3,1.15-.7,2.51-1.05,4.09-1.05s2.94.35,4.09,1.05c1.15.7,2.03,1.7,2.65,3,.61,1.3.92,2.83.92,4.6s-.31,3.32-.93,4.62c-.62,1.3-1.51,2.31-2.66,3.01-1.15.71-2.51,1.06-4.06,1.06s-2.91-.35-4.06-1.05ZM294.49,197.56c.99-1.22,1.49-2.95,1.49-5.19s-.49-3.96-1.48-5.17c-.98-1.21-2.37-1.81-4.17-1.81s-3.19.61-4.18,1.82-1.49,2.94-1.49,5.16.5,3.97,1.49,5.19,2.39,1.83,4.18,1.83,3.17-.61,4.16-1.83Z"/>
      <path class="cls-1" d="M314.31,200.88h-2.06l-2.08-5.65c-.25-.7-.6-1.17-1.05-1.41-.45-.24-1.08-.36-1.9-.36h-4.2v7.41h-1.91v-16.97h6.69c1.81,0,3.2.4,4.17,1.22.97.81,1.45,1.98,1.45,3.5,0,1.11-.29,2.05-.86,2.8s-1.41,1.29-2.49,1.61c.49.08.91.29,1.25.63.35.34.64.83.87,1.47l2.13,5.74ZM307.63,191.84c2.58,0,3.88-1.06,3.88-3.19,0-1.05-.32-1.83-.95-2.35-.63-.52-1.61-.77-2.93-.77h-4.61v6.31h4.61Z"/>
    </g>
    <g id="PLUGINS">
      <path class="cls-1" d="M270.79,158.15h6.71c1.73,0,3.08.42,4.05,1.26s1.45,2,1.45,3.48-.49,2.64-1.46,3.49c-.98.85-2.32,1.27-4.04,1.27h-4.77v7.46h-1.94v-16.97ZM277.34,166.04c1.24,0,2.18-.27,2.81-.81.63-.54.95-1.32.95-2.34s-.32-1.79-.95-2.32c-.63-.53-1.57-.8-2.81-.8h-4.61v6.27h4.61Z"/>
      <path class="cls-1" d="M285.75,158.15h1.94v15.3h8.43v1.67h-10.37v-16.97Z"/>
      <path class="cls-1" d="M299.13,173.58c-1.13-1.15-1.69-2.86-1.69-5.11v-10.32h1.91v10.48c0,1.65.4,2.9,1.21,3.74.8.84,1.99,1.26,3.57,1.26s2.74-.42,3.53-1.26c.79-.84,1.19-2.09,1.19-3.74v-10.48h1.94v10.32c0,2.24-.57,3.94-1.7,5.1-1.13,1.16-2.79,1.74-4.96,1.74s-3.87-.58-5-1.73Z"/>
      <path class="cls-1" d="M327.71,166.27v7.86c-.66.35-1.53.63-2.6.85-1.07.22-2.16.32-3.26.32-1.67,0-3.11-.35-4.32-1.04-1.21-.69-2.14-1.69-2.78-2.99-.64-1.3-.96-2.86-.96-4.67s.32-3.34.96-4.63c.64-1.29,1.55-2.29,2.74-2.98s2.6-1.04,4.22-1.04c1.18,0,2.26.18,3.25.54s1.83.89,2.54,1.61l-.76,1.5c-.82-.7-1.62-1.2-2.4-1.51-.78-.31-1.66-.47-2.63-.47-1.91,0-3.37.6-4.38,1.8-1.02,1.2-1.52,2.93-1.52,5.18s.52,4.06,1.56,5.25c1.04,1.2,2.55,1.8,4.54,1.8,1.4,0,2.75-.22,4.04-.67v-5.17h-4.18v-1.55h5.95Z"/>
      <path class="cls-1" d="M331.25,158.15h1.94v16.97h-1.94v-16.97Z"/>
      <path class="cls-1" d="M350.42,158.15v16.97h-1.51l-10.16-13.65v13.65h-1.82v-16.97h1.49l10.16,13.65v-13.65h1.84Z"/>
      <path class="cls-1" d="M353.18,173.16l.73-1.5c.83.71,1.69,1.22,2.55,1.52.87.3,1.87.45,3.02.45,1.35,0,2.4-.27,3.13-.8.73-.53,1.1-1.28,1.1-2.25,0-.57-.18-1.04-.53-1.39-.35-.36-.82-.64-1.39-.85-.58-.21-1.34-.42-2.3-.64-1.29-.29-2.35-.6-3.19-.93-.84-.33-1.51-.81-2.03-1.44-.52-.63-.78-1.45-.78-2.47s.25-1.82.76-2.56,1.22-1.31,2.14-1.73c.92-.41,2-.62,3.23-.62,1.16,0,2.25.18,3.26.55,1.01.37,1.86.9,2.55,1.6l-.76,1.5c-.79-.68-1.59-1.18-2.4-1.5-.81-.32-1.7-.48-2.66-.48-1.31,0-2.33.28-3.07.85-.74.56-1.11,1.34-1.11,2.32,0,.86.32,1.5.97,1.93.65.43,1.64.8,2.98,1.12,1.45.35,2.59.67,3.41.96s1.52.74,2.07,1.33c.55.6.83,1.39.83,2.37s-.25,1.79-.76,2.51c-.5.72-1.23,1.28-2.16,1.68-.94.4-2.04.6-3.3.6-2.63,0-4.73-.72-6.28-2.14Z"/>
    </g>
  </g>
  <g id="lettring">
    <g id="cat">
      <path d="M149.39,144.03c-25.66,0-34.75,11.53-35.07,28.09h19.65c.97-7.14,4.87-11.85,14.45-11.85,8.28,0,13.48,3.09,13.48,8.28,0,5.52-2.92,7.63-13.48,9.09-21.27,2.92-36.7,5.52-36.7,28.58,0,12.99,8.44,21.92,26.63,21.92,10.72,0,19.16-3.74,24.19-9.26.16,2.44.65,5.2,1.3,7.14h19.65v-50.5c0-20.14-8.77-31.5-34.1-31.5ZM162.22,195.67c-.16,9.42-8.28,17.37-19.16,17.37-6.66,0-10.23-2.92-10.23-8.93,0-6.82,3.9-10.23,15.91-12.5,7.79-1.46,11.53-2.6,13.64-4.71l-.16,8.77Z"/>
      <path d="M270.64,127.04c-9.81,10.74-29.38,22.31-58.03,19.1-7.46-.87-14.37-2.45-20.78-4.66v54.52c0,17.21,9.26,32.15,32.64,32.15s32.31-15.1,32.31-31.99v-22.73h-19.65v20.78c0,9.91-3.9,15.59-12.34,15.59s-12.18-5.85-12.18-15.91v-32.8c35.17-2.57,55.92-18.18,60.83-32.4.59-1.7-1.59-2.97-2.8-1.64Z"/>
    </g>
    <g id="aked">
      <path d="M148.41,60.73c-21.27,2.92-36.7,5.52-36.7,28.58,0,12.99,8.44,21.92,26.63,21.92,10.72,0,19.16-3.74,24.19-9.26.16,2.44.65,5.2,1.3,7.14h19.65v-50.5c0-20.14-8.77-31.5-34.1-31.5s-34.75,11.53-35.07,28.09h19.65c.97-7.14,4.87-11.85,14.45-11.85,8.28,0,13.48,3.09,13.48,8.28,0,5.52-2.92,7.63-13.48,9.09ZM162.38,69.99l-.16,8.77c-.16,9.42-8.28,17.37-19.16,17.37-6.66,0-10.23-2.92-10.23-8.93,0-6.82,3.9-10.23,15.91-12.5,7.79-1.46,11.53-2.6,13.64-4.71Z"/>
      <path d="M297.67,27.12c-24.52,0-38.65,15.91-38.65,40.6,0,28.9,13.32,43.52,39.95,43.52,17.05,0,30.2-9.26,35.07-25.66h-21.76c-1.46,5.52-7.47,8.93-14.29,8.93-10.39,0-17.21-7.79-17.86-19.81h55.05c0-31.66-12.99-47.58-37.51-47.58ZM280.78,61.38c.81-11.04,7.79-17.54,16.24-17.54s16.08,5.68,16.4,17.54h-32.64Z"/>
      <path d="M396.46,0v39.62c-6.01-8.44-13.8-12.5-23.71-12.5-20.62,0-32.8,17.05-32.8,41.24,0,26.96,14.45,42.87,34.59,42.87,9.74,0,17.21-3.74,22.25-11.85l.16,9.74h20.3V0h-20.78ZM379.41,94.02c-10.55,0-18.02-9.9-18.02-24.19,0-16.4,5.85-24.68,18.19-24.68,11.69,0,17.7,8.61,17.7,25.98,0,13.48-7.79,22.9-17.86,22.9Z"/>
      <path d="M212.62,109.12l.39-25.33,10.23-10.55,17.54,35.89h23.71l-26.14-50.5,26.79-29.39h-25.82l-26.31,30.37-.39-59.59h-20.78v125.84c5.96,6.13,13.51,10.43,20.78,10.79v-27.51Z"/>
    </g>
  </g>
  <g id="mascot-bg">
    <g>
      <path class="cls-4" d="M1.62,190c1.84,15.55,7.05,19.7,14.99,27.82.05.14.11.3.18.46-.1-.08-.16-.13-.16-.13,1.99,7.44,13.28,26.04,21.59,32.46,32.48,23.71,67.54,3.55,70.66-14.78-11.84,31.91-66.8,26.63-77.21-9.63,8.1,3.15,16.13,3.9,23.6,2.82,5.48,12.12,18.28,5.47,10.71-5.69,45.44-7.92-16.25-31.24-.66-73.53,3.37.3,7.28-.72,9.19-3.7,0,0,0,0,0,0,1.74-2.45.02-6.63-4.41-9.95.56-2.73-.04-4.66-3.07-6.03,3.53-.25,6.67-1.24,9.56-3.02,2.29,4.18,7.75,7.33,12.13,8.94,2.13.78,10.81-9.04,9.54-12.08-.82-2-2.19-4.17-3.52-5.99.8,1.19,1.83-1.74,2.71-3.36,3.81-2.51.53-5.68,1.19-9.51,4.64-4.6,3.92-29.44-7.73-16.48-7.31,8.48-10.33,7.38-13.22,14.42-7.7-3.37-16.19-5.65-25.05-6.02.02.02.04.04.05.06-1.4-.06-2.8-.08-4.2-.03h0c-1.08.03-2.15.11-3.21.22-.04-4.04-2.74-7.78-5.73-10.83-3.79-4.16-6.05-10-10.43-13.35.02.2.04.41.05.62-3.94-3.23-7.2-.39-9.27,6.65-1.7,9.08-.92,10.14.37,15.74-.44,3.72-3.85,6.17-.49,9.41,0,0,.7,2.62.7,2.62-.87.77-1.03.95-.81,1.75.14,1.72,1.74,3.65,2.55,5.08h0s13.48,4.62,13.48,4.62l2.67,5.45C13.74,132.1.34,165.29,1.62,190Z"/>
      <path class="cls-4" d="M117.01,194.71c-.48-.8-2.61-.77-3.65-.03,4.57-2.68,1.2-7.76-1.85-8.71-1.66-.16-2.08.85-3.7,3.01,2.44-8.17-8.83-6.22-7.76-.02-1.65-4.44-6.33-1.12-7.31,2.57-.9,8.44,5.5,9.44-.25,19.61-1.72,5.58-6.39,11.44-2.32,15.95,2.21,2.02,6.37,2.49,8.24-.07,2.74-3.5,6.02-13.72,8.53-17.22,2.98-3.69,8.02-3.85,10.07-8.28.82-1.72,2.19-4.6,0-6.81Z"/>
      <path class="cls-4" d="M99.41,138.88c-3.06,6.52,8.56,16.22,12.01,7.6,1.78-6.4-8.9-15.55-12.01-7.6Z"/>
    </g>
    <g>
      <path class="cls-2" d="M67.63,149.81c3.16-.33,5.72-1.75,6.87-3.71-2.52-2.52-6.22-4.36-9.39-5.33-5.55-1.7-11.47-1.68-17.27-1.54-4.72.11-9.53.31-13.98,1.88-6.15,2.17-11.27,6.93-14.2,12.76-1.28,2.55-2.15,5.28-2.63,8.09,8.33-7.54,14.14-12.66,22.12-14.71-2.71,6.89-5.39,17.32-7.03,22.41-2.48,7.69-2.75,19.68,5.73,34.3.47-.03.99.06,1.63.25-1.39-1.01-2.09-1.66-2.25-2.51-.36-1.94.27-4.62,2.53-5.93l.13-.07.12-.04c1.18-.43,2.2.46,4.28,2.46-.77-2.5-1.12-3.93-.08-4.77.26-.21.58-.38.99-.53,1.03-.37,2.72-.6,4.2-.21-6.97-9.35-10.63-21.76-8.74-33.3.65-3.06,2.29-8.7,2.17-12.7.66-.06,1.33-.09,2.05-.09,4.26,0,8.84,1.02,12.88,1.92,3.31.74,6.43,1.43,8.84,1.43.38,0,.73-.02,1.06-.05Z"/>
      <path class="cls-2" d="M79.69,207.35c-6.86.85-13.37-.89-19.05-4.34-.06.86-.2,1.73-.34,2.58-.31,1.9-.63,3.87-.18,6.07.29,1.41,1.95,4.45,3.55,7.39.78,1.43,1.57,2.89,2.29,4.29l6.59-1.4c16.48-4.31,9.52-14.98,7.12-14.58Z"/>
      <path class="cls-2" d="M110.42,140.94c-1.62-2.66-4.52-4.91-6.73-5.23-.41-.06-.79-.05-1.12.03-1.39.33-2.57,1.51-3.16,3.14-.85,2.35-.36,5.09,1.3,7.33,1.46,1.96,3.51,3.3,5.5,3.59,2.46.36,4.36-.85,5.21-3.33.74-2.17-.31-4.4-1-5.54Z"/>
    </g>
    <path class="cls-3" d="M39.87,124.69l-3.03-6.2-1.06-.36c1.69-1.32,3.26-2.45,4.43-.94,5.01,6.5,14.09,4.22,14.09,4.22l5.51,7.72s-13.5-1.39-17.7,0c-8.42,2.78-22.87,8.96-22.87,8.96,0,0,3.85-4.22,7.53-7.3,7.17-5.23,13.1-6.1,13.1-6.1Z"/>
    <g>
      <path class="cls-6" d="M33.68,226.66c-.56-2.26-3.41-3.86-6.32-6.37-18.59-17.05-24.13-37.17-18.35-63.01.19-.87.41-2.04.41-2.04l-.47-1.16s-.18.03-.19-.21c-6.14,14.24-7.29,29.57-7.29,29.57l-.04,1.16c.92,22.98,11.01,29.93,17.79,34.6,4.67,3.22,9.56,5.72,14.47,7.45Z"/>
      <path class="cls-6" d="M98.63,105.1c4.64-4.6,3.92-29.44-7.73-16.48-7.31,8.48-10.33,7.38-13.22,14.42-6.29-3.01-17.89-5.28-25.05-6.02,2.97,3.76,9.11,7.21,12.59,12.65.02.03.05.03.08.04,4.21,4.09,11.47,10.84,14.58,7.49,5.38-5.8,1.04-9.06-1.3-13.29,2.18,1.13,5.49,3.25,8.7,5.96,3.31,2.81,4.54,4.56,7.55,8.22.75.91,1.78-1.88,2.62-3.47,3.81-2.51.53-5.68,1.19-9.51Z"/>
      <path class="cls-6" d="M24.95,115.89c3.76-3.48,8.01-6.27,12.58-8.07,2.75-2.55,6.42-4.41,7.72-7.91.32-.85.46-1.74.58-2.63-.19.02-.38.03-.57.05,0,0-.23-2.21-.43-2.92-.77-2.74-3.09-5.67-5.3-7.98-2.2-2.58-5.5-7.66-7.24-10.14-.63-.89-1.85-2.33-3.19-3.21.39,3.93-.14,8.72,4.42,16.58,2.06,3.76,2.48,8.25.66,11.3-.55.92-.13,2.93-.7,3.71-.49.68-2.64-.2-3.3.32-2.25,1.8-5.43,2.79-9.4,3.55-.72.65-.85.76-1.54,1.46v.62s2.97,4.33,2.97,4.33l2.74.94Z"/>
      <path class="cls-6" d="M35.32,242.91c-3.93-4.49-7.75-13.41-9.98-19.22-1.19-.63-2.4-1.29-3.09-1.69-3.65-2.13-5.63-3.84-5.63-3.84,0,0,1.76,5.21,5.4,11.91,3.51,6.15,8.79,13.77,16.19,20.55,3.99,3.28,8.55,5.96,13.7,7.45,5.38,1.56,10.27,2.47,14.72,2.87l.95-.58s-18.19-1.37-32.26-17.45Z"/>
      <path class="cls-6" d="M64.21,121.02c.21-.18.22-.5.04-.71-.18-.21-.5-.22-.71-.04-.21.18-.22.5-.04.71.18.21.5.22.71.04Z"/>
      <path class="cls-6" d="M68.21,121.54c-.21.18-.22.5-.04.71s.5.22.71.04c.21-.18.22-.5.04-.71s-.5-.22-.71-.04Z"/>
      <path class="cls-6" d="M65.59,124.04c.21-.18.22-.5.04-.71-.18-.21-.5-.22-.71-.04-.21.18-.22.5-.04.71.18.21.5.22.71.04Z"/>
      <path class="cls-6" d="M69.72,124.04c-.21.18-.22.5-.04.71s.5.22.71.04c.21-.18.22-.5.04-.71-.18-.21-.5-.22-.71-.04Z"/>
      <path class="cls-6" d="M67.09,126.71c.21-.18.22-.5.04-.71-.18-.21-.5-.22-.71-.04s-.22.5-.04.71c.18.21.5.22.71.04Z"/>
      <path class="cls-6" d="M61.95,124.77c.21-.18.22-.5.04-.71-.18-.21-.5-.22-.71-.04s-.22.5-.04.71c.18.21.5.22.71.04Z"/>
      <path class="cls-6" d="M89.24,124.99c-.26.1-.39.38-.3.64.1.26.38.39.64.3.26-.1.39-.38.3-.64-.1-.26-.38-.39-.64-.3Z"/>
      <path class="cls-6" d="M85.13,123.99c-.26.1-.39.38-.3.64.1.26.38.39.64.3.26-.1.39-.38.3-.64-.1-.26-.38-.39-.64-.3Z"/>
      <path class="cls-6" d="M87.21,127.08c-.26.1-.39.38-.3.64.1.26.38.39.64.3.26-.1.39-.38.3-.64-.1-.26-.38-.39-.64-.3Z"/>
      <path class="cls-6" d="M82.62,125.49c-.26.1-.39.38-.3.64.1.26.38.39.64.3.26-.1.39-.38.3-.64-.1-.26-.38-.39-.64-.3Z"/>
      <path class="cls-6" d="M84.63,128.74c-.26.1-.39.38-.3.64.1.26.38.39.64.3.26-.1.39-.38.3-.64-.1-.26-.38-.39-.64-.3Z"/>
      <path class="cls-6" d="M89.24,129.24c-.26.1-.39.38-.3.64.1.26.38.39.64.3.26-.1.39-.38.3-.64-.1-.26-.38-.39-.64-.3Z"/>
    </g>
    <g id="Mascot">
      <g>
        <path class="cls-5" d="M51.54,214.29l-2.75-1.38c-2.01-1.01-2.17-3.82-.29-5.05l2.57-1.69c1.88-1.23,4.39.03,4.52,2.28l.17,3.07c.13,2.25-2.22,3.79-4.23,2.77Z"/>
        <ellipse class="cls-5" cx="55.43" cy="201.38" rx="2.28" ry="1.59" transform="translate(-149.71 240.7) rotate(-85.46)"/>
        <ellipse class="cls-5" cx="48.59" cy="199.15" rx="1.78" ry="2.55" transform="translate(-79.44 39.05) rotate(-24.94)"/>
        <ellipse class="cls-5" cx="43.21" cy="202.27" rx="1.7" ry="2.44" transform="translate(-120.46 75.81) rotate(-40.25)"/>
        <ellipse class="cls-5" cx="42.58" cy="209.85" rx="1.79" ry="2.56" transform="translate(-145.57 107.63) rotate(-50.02)"/>
      </g>
      <g>
        <path class="cls-5" d="M99.2,204.15l-.47-3.04c-.34-2.22,1.85-3.98,3.94-3.17l2.87,1.11c2.1.81,2.53,3.59.77,5l-2.4,1.93c-1.75,1.41-4.37.39-4.72-1.83Z"/>
        <ellipse class="cls-5" cx="111.97" cy="199.81" rx="2.28" ry="1.59" transform="translate(-86.95 86.27) rotate(-31.02)"/>
        <ellipse class="cls-5" cx="109.8" cy="192.95" rx="2.55" ry="1.78" transform="translate(-112.2 193.48) rotate(-60.49)"/>
        <ellipse class="cls-5" cx="104.14" cy="190.39" rx="2.44" ry="1.7" transform="translate(-105.98 244.66) rotate(-75.81)"/>
        <ellipse class="cls-5" cx="97.6" cy="194.29" rx="2.56" ry="1.79" transform="translate(-103.64 276.6) rotate(-85.57)"/>
      </g>
    </g>
  </g>
  <g id="mascot">
    <path d="M149.39,144.03c-25.66,0-34.75,11.53-35.07,28.09h19.65c.97-7.14,4.87-11.85,14.45-11.85,8.28,0,13.48,3.09,13.48,8.28,0,5.52-2.92,7.63-13.48,9.09-14.07,1.93-25.58,3.73-31.76,11.4-.99-2.3-3.26-4.13-4.81-4.49-.45-.1-.9-.1-1.36,0,0,0,0,0,0,0-.42.09-.8.26-1.16.49-.2-.93-.7-1.92-1.92-2.42-1.2-.48-2.53-.59-3.85-.3-1.54.33-2.97,1.17-4.01,2.36-.24.28-.43.58-.57.9-.36-.13-.76-.19-1.22-.18-.37.01-.73.05-1.08.13-1.81.39-3.32,1.6-4.39,3.47h-5.14c-1.27,5.55-3.4,10.09-6.39,13.53-1.08-1.7-2.31-3.47-3.59-5.3-4.58-6.58-9.78-14.04-11.45-22.6-1.9-9.69-.9-17.25.81-23.35.02,0,.04,0,.06,0,.43,0,.83-.02,1.21-.06,4.22-.44,7.56-2.67,8.52-5.66.67-2.11.49-5.49-4.21-9.63-.11-.09-.22-.18-.33-.27,0-.03,0-.07.01-.1,1.35.5,2.66,1.13,3.9,1.88,5.39,3.27,9.6,8.83,11.46,16.16h22.57c-.09-.92-.22-1.83-.36-2.74,1.57-.65,2.79-1.99,3.46-3.93.93-2.72-.31-5.41-1.14-6.76-1.85-3.04-5.12-5.52-7.76-5.91-.3-.04-.59-.06-.87-.05-.23-.35-.45-.71-.68-1.05-1.31-1.89-2.78-3.66-4.4-5.31,1.13-2.17,1.73-4.42.87-6.12-.36-.7-.77-1.42-1.22-2.13-.21-.34-.45-.66-.67-.99.45-.6.85-1.42,1.29-2.34.12-.24.23-.49.35-.71,2.71-1.97,2.33-4.42,1.88-6.46h5.6V1.3h-21.11v69.34L42.06,1.3h-23.87v80.26c-1.05,5.81-.54,10-.51,10.19.07.58.31,1.3.58,2.15.21.66.57,1.76.57,2.1-.03.43-.54,1.94-1.18,3.5l-.12.32c-.71,1.99-1.39,3.87.95,6.4l.38,1.41c-.18.3-.3.66-.33,1.06-.18,2.45,3,7.57,5.89,8.6.32.11.63.23.93.35.24.09.48.18.71.27,3.81,1.4,7.25,2.45,8.61,2.86l1.91,3.9C20.33,128.27-1.01,153.48.04,188.25c.5,16.4,8.36,25.16,15.23,30.42.23.68,3.02,8.65,8.71,17.59,7.78,12.21,17.3,20.23,27.53,23.19,7.32,2.12,14.13,3.18,20.38,3.18,7.96,0,15.03-1.72,21.12-5.16,13.46-7.59,17.11-20.72,17.26-21.27.2-.74-.21-1.5-.94-1.75-.73-.24-1.51.12-1.8.82-.35.84-8.71,20.55-31.15,20.55-.18,0-.36,0-.54,0-15.7-.22-25.33-6.92-31.21-11.94-7.06-6.03-9.79-12.19-10.81-15.41,5.01,1.63,10.01,2.48,14.81,2.48,1.72,0,4.04-.11,5.93-.33,1.16,1.82,2.36,3.47,3.56,4.66,1.76,1.74,4.31,2.23,6.82,1.32,3.7-1.35,5.35-4.58,5.01-7.24,6.37-.79,12.11-2.73,17.14-5.64.06,1.67.8,3.26,2.12,4.45,1.84,1.67,4.56,2.42,6.92,1.9,1.46-.32,2.65-1.08,3.47-2.2,1.76-2.44,3.44-6.36,5.07-10.14,1.16-2.7,2.6-6.06,3.39-6.99,1.08-1.27,2.36-2.08,3.72-2.85.7,12.08,9.18,20.26,26.58,20.26,10.72,0,19.16-3.74,24.19-9.26.16,2.44.65,5.2,1.3,7.14h19.65v-50.5c0-20.14-8.77-31.5-34.1-31.5ZM103.48,137.14c.48.07,1.02.28,1.58.59,1.49.81,3.12,2.33,4.12,3.97.56.92,1.42,2.71.87,4.31-.3.86-.73,1.48-1.28,1.89-.62.45-1.41.62-2.35.48-.8-.12-1.61-.45-2.39-.96.71-.92,1.25-1.39,3.44-1.68.25-.03.47-.13.66-.27.41-.3.65-.81.58-1.35-.1-.73-.71-1.25-1.43-1.25-.07,0-.13,0-.2,0-2.79.37-4.02,1.17-5.16,2.56-.02-.02-.04-.04-.05-.07-.12-.17-.23-.34-.34-.51.17-.22.32-.45.48-.67.73-1.07,1.18-1.71,2.69-1.91.79-.1,1.35-.83,1.25-1.62-.1-.79-.83-1.35-1.63-1.25-1.99.26-3.09,1.12-3.87,2.03-.02-.7.08-1.4.31-2.05.43-1.18,1.22-2.01,2.13-2.23.15-.04.35-.04.57,0ZM84.45,96.74c1.93-1.54,4.32-3.46,7.53-7.18,1.85-2.06,3.54-3.2,4.71-3.2.12,0,.24.01.35.04,1.2.28,1.88,2.12,2.19,3.19,1.44,5.1.3,12.62-1.61,14.5-.21.21-.35.48-.4.78-.29,1.7.04,3.21.34,4.55.49,2.21.59,3.03-.9,4.01-.2.13-.37.32-.48.53-.18.33-.36.72-.55,1.11-.14.3-.33.68-.51,1.04-1.22-1.59-2.52-3.11-3.93-4.53-.85-.89-1.79-1.78-2.99-2.8-.47-.4-.94-.78-1.41-1.15-.22-.18-.45-.35-.68-.53-.66-.51-1.32-.99-1.97-1.44-.18-.12-.36-.25-.54-.38-1.56-1.06-3.02-1.94-4.22-2.58,1.39-3.02,2.84-4.17,5.07-5.96ZM39.13,36.7l39.37,61.82c-.58.8-1.14,1.72-1.68,2.88-7.82-3.76-16.79-5.82-26.32-5.82h0c-.69,0-1.38.01-2.07.03-.89.03-1.78.08-2.67.15-.09-.65-.2-1.35-.31-1.74-.71-2.52-2.6-5.4-5.62-8.55-.22-.26-.45-.55-.7-.86v-47.91ZM42.74,246.09c9.75,8.33,20.56,12.46,33.05,12.64,3.74.06,7.11-.41,10.16-1.23-9.26,3.24-20.54,2.97-33.64-.83-12.05-3.49-20.73-13.87-25.89-21.97-3.04-4.77-5.25-9.33-6.64-12.52.53.33,1.11.69,1.73,1.05,1.4.82,5.04,2.75,6.33,3.33.23.1,1.12.5,1.94.84.29.12.57.24.82.33.7,2.91,3.32,10.81,12.14,18.34ZM19.26,218.02c-6.78-4.67-15.84-12.85-16.36-29.86-1.03-34.06,20.97-59.25,35.98-60.96.46-.05.87-.33,1.1-.74.22-.41.23-.9.03-1.32l-3.03-6.2c-.18-.37-.51-.64-.9-.75-.04-.01-4.24-1.2-9.02-2.97-.22-.08-.45-.17-.68-.26-.33-.13-.67-.26-1.01-.38-1.63-.58-3.71-4.06-3.97-5.39.11-.09.2-.2.27-.32.21-.34.27-.75.17-1.13l-.7-2.62c-.06-.24-.19-.46-.37-.64-1.38-1.39-1.24-1.79-.56-3.69l.1-.27c.46-1.12,1.28-3.26,1.36-4.33.06-.78-.24-1.77-.7-3.19-.2-.62-.43-1.31-.47-1.62,0-.05-.57-4.63.77-10.73,1.14-5.2,4.01-6.88,4.93-6.9,0,0,.02,0,.02,0,1.08,0,2.96,1.74,4.11,3.36.46.65,1.02,1.48,1.65,2.4,1.78,2.62,4.01,5.89,5.67,7.84.02.02.04.04.06.06,2.67,2.78,4.38,5.33,4.96,7.38.11.41.29,1.81.38,2.68.04.38.23.73.53.97.3.24.68.35,1.06.31,1.26-.15,2.56-.24,3.85-.28.66-.02,1.33-.03,1.98-.03,2.65,0,5.24.18,7.79.5.23.45.55.99,1.17,1.24.26.11.52.14.73.16.12.01.26.03.32.06.11.06.24.36.33.59.22.51.52,1.22,1.33,1.41.18.04.33.05.46.05h.03c.01.05.03.12.04.17.07.3.16.71.48,1.03.31.31.69.4.97.46,1.29.3,2.33,1.31,2.67,2.51.1.34.4.56.74.56.07,0,.14,0,.21-.03.41-.12.65-.54.53-.95-.49-1.76-1.96-3.16-3.73-3.58l-.08-.02c-.09-.02-.21-.05-.25-.07.01,0-.02-.15-.04-.25-.08-.34-.2-.91-.76-1.21-.29-.15-.58-.16-.77-.17-.05,0-.1,0-.14,0-.07-.05-.2-.34-.27-.52-.12-.29-.27-.61-.51-.89,1.2.22,2.38.49,3.54.78.25.58.55,1.12.94,1.61.19.23.43.49.78.64.19.08.37.11.51.13.05,0,.1.01.15.03.26.07.43.42.68.98.2.46.43.98.83,1.39.41.42.92.65,1.37.85.42.19.79.35.95.61.09.15.16.37.23.61.14.49.31,1.11.89,1.51.28.19.57.27.81.34.13.04.29.08.34.12.06.05.13.25.16.32.29.77.48,1.58.57,2.4.04.4.38.69.76.69.03,0,.05,0,.08,0,.42-.05.73-.42.68-.85-.1-.95-.32-1.89-.66-2.78-.12-.33-.28-.67-.59-.94-.31-.27-.66-.36-.94-.44-.14-.04-.28-.08-.34-.12-.12-.08-.2-.37-.28-.66-.09-.32-.19-.69-.42-1.03-.41-.64-1.05-.93-1.62-1.18-.36-.16-.69-.31-.9-.52-.21-.21-.36-.57-.53-.94-.31-.7-.69-1.58-1.68-1.85-.1-.03-.2-.05-.31-.06-.06,0-.13-.02-.16-.03-.01,0-.06-.04-.18-.19-.02-.03-.04-.07-.06-.1,1.83.54,3.6,1.18,5.33,1.89.07.32.22.63.43.88.14.17.31.32.47.48.23.21.45.41.49.59.03.1.03.21.04.33.03.39.07.98.58,1.37.23.18.47.24.64.29l.09.03c.51.16.87.78.77,1.3-.08.42.19.82.6.91.05.01.1.02.15.02.36,0,.68-.25.75-.62.26-1.3-.56-2.68-1.82-3.07l-.13-.04s-.05-.01-.08-.02c-.01-.07-.02-.19-.03-.27-.01-.19-.03-.4-.09-.62-.03-.12-.08-.22-.13-.32.38.18.76.34,1.13.53.11.09.22.17.35.23.18.08.4.19.61.29.62.33,1.23.68,1.84,1.04-.03.15-.13.29-.29.38-.18.1-.37.12-.52.05-.19-.09-.42-.01-.51.18-.09.19-.01.42.18.51.16.08.34.12.53.12.24,0,.48-.06.7-.19.27-.16.47-.39.58-.65.58.35,1.15.7,1.7,1.07.19.13.38.25.57.39.62.42,1.21.87,1.81,1.32.26.2.51.39.77.59,1.48,1.17,2.87,2.42,4.19,3.75,1.1,1.15,2.04,2.3,3.26,3.8.38.46.78.96,1.22,1.49.55.76,1.08,1.52,1.57,2.31.4.64.77,1.28,1.09,1.91.63,1.22-1.6,5.7-5.11,9.17-1.57,1.56-2.55,2.03-2.86,2.1-.96-.39-1.91-.83-2.83-1.31-3.62-1.91-6.33-4.26-7.63-6.61,0,0-.01-.02-.02-.03.06-.06.12-.12.18-.19.2-.22.86-.83.86-.83l.86-.83.86-.83s.71-.58.86-.83c1.11-1.88-1.06-2.24-1.46-2.32-.4-.09-1.59-.33-1.59-.33l-1.59-.33-1.59-.33s-1.2-.21-1.59-.33c-1.33-.4-2.28.45-1.72,1.67.14.31.73,1.16.73,1.16l.73,1.16.73,1.16s.55.87.73,1.16c.12.2.25.44.39.68-2.99,1.69-6.27,2.53-10.01,2.53-4.03,0-8.08-.97-11.93-2.13-.02,0-.03-.01-.05-.02-.47-.14-.94-.29-1.41-.44-.12-.04-.24-.08-.36-.11-.76-.24-1.56.18-1.8.93-.13.4-.07.81.12,1.14-5.02-.12-10.01.68-14.28,2.31,0,0,0,0,0,0,0,0,0,0,0,0,0,0-.01,0-.02,0h0c-.1.04-.19.07-.29.11-.74.29-1.1,1.13-.81,1.86.29.74,1.12,1.1,1.86.81,3.61-1.43,7.81-2.2,12.17-2.24.05,0,.09,0,.14,0,8.48-.04,16.57,2.61,21.67,7.11,2.08,1.83,3.25,3.57,3.48,5.1-1.08-1.71-2.88-3.79-5.93-4.89-.75-.27-1.57.12-1.83.87-.27.75.12,1.57.87,1.84,3.35,1.2,4.74,4.06,5.4,5.43.02.04.04.07.06.11-.15.13-.33.25-.5.36-2.48-3.42-5.45-5.49-8.86-6.1-.79-.14-1.53.38-1.67,1.16-.14.78.38,1.53,1.16,1.67,3.29.59,5.48,2.86,6.69,4.44-.5.13-1.02.23-1.57.29-.28.03-.59.04-.91.04-2.25,0-5.3-.68-8.53-1.4-4.11-.91-8.77-1.95-13.19-1.95-1.69,0-3.21.15-4.66.45-9.16,1.9-15.27,7.35-24.38,15.59-.11.1-.22.2-.34.31-.02.02-.03.03-.05.05l-1.14,1.03c-.31.28-.47.67-.47,1.07,0,.34.12.69.37.96.53.59,1.44.64,2.03.1l.15-.14c-1.05,4.19-1.58,8.49-1.58,12.84,0,4.58.68,9.31,2.13,14.86,3.46,13.19,13.32,19.24,18.9,21.67.98.43,1.98.79,2.98,1.12,1.17.6,2.42.97,3.6,1.31,1.87.55,3.64,1.07,4.96,2.37.76.76,2.29,3.48,3.64,5.88.6,1.07,1.22,2.17,1.85,3.26-10.53,1.25-22.66-2.26-33.59-9.8ZM63.95,233.88c-1.3.47-2.74.39-3.8-.65-.95-.94-1.93-2.27-2.91-3.77-2.05-3.15-4.07-7.06-5.73-9.83-.8-1.34-1.52-2.42-2.11-3,0,0-.02-.02-.03-.02-3.68-3.61-9.08-2.64-11.18-5.84-.97-1.48-1.79-3.59-.6-5.2.04-.05.09-.09.16-.11,1.02-.37,5.16,2,6.29,1.59.1-.04.18-.09.22-.18.73-1.23-5.41-4.28-5.63-5.41-.29-1.55.27-3.5,1.83-4.4,0,0,.02,0,.02-.01.15-.05.45.1.82.39,1.58,1.19,4.65,4.64,5.19,4.44,0,0,.01,0,.02,0,.72-.42-2.13-6.8-1.42-7.37.13-.1.33-.21.57-.3,1.21-.44,3.56-.6,4.58.49.81.87.11,7.39,1.73,7.29.08,0,.16-.02.23-.05,1.49-.54.86-5.51,2.26-6.02.05-.02.1-.03.15-.04,2.17-.26,3.19,1.99,4,3.62,1.47,2.95-.3,6.23-.17,10.35.02.68.09,1.39.24,2.12.69,3.34,6.86,12.44,8.31,17.45.02.08.02.16.03.23.32,1.73-1.23,3.56-3.1,4.24ZM40.78,148.34c1.25-.26,2.58-.39,4.08-.39,4.1,0,8.6,1,12.57,1.88,2.08.46,4.09.91,5.93,1.18-1.69,6.32-2.67,14.29-.72,24.23,1.81,9.21,7.2,16.96,11.96,23.79,1.41,2.03,2.76,3.96,3.89,5.78-3.21,2.74-7.18,4.47-11.94,5.06-1.25.16-2.56.24-3.92.24-.42,0-.83-.02-1.24-.04-.1-1.45.12-2.82.36-4.26.38-2.34.81-5-.51-7.64l-.1-.21c-.88-1.78-2.72-5.48-6.83-4.99-.28.03-.55.1-.81.19-.21.08-.4.16-.57.26-.14-.27-.32-.51-.53-.74-2.06-2.21-5.73-1.95-7.69-1.24-.56.2-1.02.46-1.41.77-.78.63-1.11,1.39-1.17,2.28-.74-.38-1.46-.49-2.26-.29-2.36-5.91-3.55-13.34-3.55-22.09,0-9.55,1.46-17.58,4.42-23.78h.04ZM111.75,204.58c-1.9,1.07-4.1,2.14-5.91,4.28-2.2,2.6-5.55,13.08-8.6,17.31-.41.57-1.02.91-1.73,1.07-2.41.52-5.85-1.23-5.52-4.11.05-.45.14-.94.26-1.44,1.24-5.61,5.82-14.19,6.17-17.27.59-5.14-3.52-8.8-2.31-12.43.36-1.07.97-2.25,1.88-2.98.38-.3.8-.53,1.29-.64.18-.04.36-.06.55-.07.23,0,.45.27.66.71.78,1.62,1.45,5.48,2.44,5.35.01,0,.02,0,.04,0,.89-.19.61-3.12.53-5.34-.04-1.16-.03-2.13.22-2.42.6-.69,1.48-1.23,2.44-1.44.7-.15,1.45-.12,2.15.16.37.15.22,1.9.03,3.7-.19,1.92-.42,3.9-.08,4.04.03.01.07.01.11,0,.58-.13,2-2.41,3.18-4.04.63-.87,1.19-1.56,1.53-1.63.04,0,.07,0,.1,0,.95.22,3.31,2.4,3.03,4.18-.18,1.18-5.75,4.65-4.67,5.86.25.28.62.33,1.05.23.66-.14,1.47-.6,2.27-1.06.79-.45,1.58-.9,2.2-1.04.37-.08.69-.05.91.17,1.54,1.55.4,3.74-.38,5.39-.77,1.62-2.2,2.54-3.85,3.47ZM162.22,195.67c-.16,9.42-8.28,17.37-19.16,17.37-6.66,0-10.23-2.92-10.23-8.93,0-6.82,3.9-10.23,15.91-12.5,7.79-1.46,11.53-2.6,13.64-4.71l-.16,8.77Z"/>
    <path d="M32.73,88.46c-.66.44-.83,1.33-.39,1.99.99,1.49,2.02,3.71,1.91,5.48-.07,1.13-.42,2.35-.42,2.36-.28.95-.64,1.78-.65,1.79-.19.44-.34.7-.44.88-.21.37-.42.75-.42,1.4,0,.43.08.8.2,1.09-.18-.13-.4-.25-.67-.32-1.29-.34-2.28.69-2.81,1.24-.51.52-.8,1-.99,1.32,0,.01-.01.02-.02.03,0,0,0,0,0,0-.71-.36-1.57-.08-1.93.63-.36.71-.08,1.57.63,1.93.51.26,1.01.39,1.48.39.27,0,.54-.04.8-.13.85-.28,1.23-.91,1.5-1.36.16-.27.31-.52.59-.81,0,0,.02-.02.03-.03.21.25.51.49.93.65,1.22.47,2.3-.21,2.51-.35.92-.63,1.16-1.59,1.22-1.98.15-.97-.23-1.62-.46-2.01-.07-.12-.11-.19-.12-.23.01-.03.03-.05.05-.08.12-.22.31-.56.56-1.11.02-.04.45-1.01.78-2.16.02-.06.45-1.54.53-3,.18-3.04-1.61-6.08-2.39-7.24-.44-.66-1.33-.84-1.99-.39Z"/>
    <path d="M65.26,109.12c-.18.11-.24.34-.14.53.53.89,1.68.75,2.53.65l.26-.03c1.12-.13,2.27.2,3.17.88.07.05.15.08.23.08.12,0,.23-.05.31-.15.13-.17.1-.41-.07-.54-1.05-.8-2.4-1.17-3.72-1.03l-.27.03c-.88.11-1.52.15-1.77-.27-.11-.18-.34-.24-.53-.14Z"/>
    <path d="M60.73,105.07c-.17.13-.19.38-.06.54.68.85,1.89.8,2.78.76.6-.03,1.65.03,1.93.69.06.15.21.24.36.24.05,0,.1,0,.15-.03.2-.08.29-.31.21-.5-.34-.82-1.26-1.22-2.67-1.16-.8.03-1.71.07-2.15-.47-.13-.17-.38-.19-.54-.06Z"/>
    <path d="M56.31,101.99c-.15-.05-.31-.11-.47-.17-.66-.26-1.49-.58-2.14-.02-.16.14-.18.38-.04.54.14.16.38.18.54.04.28-.24.72-.09,1.36.16.18.07.35.14.52.19.77.24,1.55.17,2.31.11.2-.02.4-.03.59-.05,1.08-.06,1.84.16,2.25.65.08.09.18.14.29.14.09,0,.18-.03.25-.09.16-.14.18-.38.05-.54-.58-.69-1.55-1.01-2.88-.93-.2.01-.41.03-.62.05-.71.06-1.39.12-2.01-.08Z"/>
    <path d="M51.33,100.13c1.97-.23,3.95-.11,5.88.36.03,0,.06.01.09.01.17,0,.33-.12.37-.29.05-.21-.08-.41-.28-.47-2.02-.49-4.09-.62-6.15-.38-.21.02-.36.22-.34.43.02.21.22.36.43.34Z"/>
    <path d="M77.85,110.6s.09.02.13.02c.16,0,.31-.1.36-.26.1-.29.72-.26,1.24-.2.51.06,1.2-.11,1.54-.54.2-.25.25-.55.14-.84-.07-.2-.3-.3-.49-.23-.2.07-.3.29-.23.49.01.04.01.06-.02.1-.12.15-.51.29-.85.25-.56-.06-1.73-.2-2.05.71-.07.2.04.42.24.49Z"/>
    <path d="M88.72,122.95c1.59,0,2.87-1.29,2.87-2.88s-1.29-2.88-2.87-2.88-2.87,1.29-2.87,2.88,1.29,2.88,2.87,2.88Z"/>
    <path d="M55.5,109.19c-1.59,0-2.87,1.29-2.87,2.88s1.29,2.88,2.87,2.88,2.87-1.29,2.87-2.88-1.29-2.88-2.87-2.88Z"/>
  </g>
</svg>