<svg xmlns="http://www.w3.org/2000/svg" viewBox="0 0 50 48"><path d="M36.1 45.1c0-1.6 1.3-2.9 2.9-2.9 1.6 0 2.9 1.3 2.9 2.9 0 1.6-1.3 2.9-2.9 2.9-1.6 0-2.9-1.3-2.9-2.9m-7 0c0-1.6 1.3-2.9 2.9-2.9 1.6 0 2.9 1.3 2.9 2.9 0 1.6-1.3 2.9-2.9 2.9-1.6 0-2.9-1.3-2.9-2.9m-7 0c0-1.6 1.3-2.9 2.9-2.9 1.6 0 2.9 1.3 2.9 2.9 0 1.6-1.3 2.9-2.9 2.9-1.6 0-2.9-1.3-2.9-2.9m-7.1 0c0-1.6 1.3-2.9 2.9-2.9 1.6 0 2.9 1.3 2.9 2.9 0 1.6-1.3 2.9-2.9 2.9-1.5 0-2.9-1.3-2.9-2.9m-7 0c0-1.6 1.3-2.9 2.9-2.9 1.6 0 2.9 1.3 2.9 2.9 0 1.6-1.3 2.9-2.9 2.9C9.3 48 8 46.7 8 45.1M43.2 24c0-1.6 1.3-2.9 2.9-2.9 1.6 0 2.9 1.3 2.9 2.9 0 1.6-1.3 2.9-2.9 2.9-1.6 0-2.9-1.3-2.9-2.9m-7.1 14c0-1.6 1.3-2.9 2.9-2.9 1.6 0 2.9 1.3 2.9 2.9 0 1.6-1.3 2.9-2.9 2.9-1.6.1-2.9-1.2-2.9-2.9m-7 0c0-1.6 1.3-2.9 2.9-2.9 1.6 0 2.9 1.3 2.9 2.9 0 1.6-1.3 2.9-2.9 2.9-1.6.1-2.9-1.2-2.9-2.9m-7 0c0-1.6 1.3-2.9 2.9-2.9 1.6 0 2.9 1.3 2.9 2.9 0 1.6-1.3 2.9-2.9 2.9-1.6.1-2.9-1.2-2.9-2.9M15 38c0-1.6 1.3-2.9 2.9-2.9 1.6 0 2.9 1.3 2.9 2.9 0 1.6-1.3 2.9-2.9 2.9-1.5.1-2.9-1.2-2.9-2.9m-7 0c0-1.6 1.3-2.9 2.9-2.9 1.6 0 2.9 1.3 2.9 2.9 0 1.6-1.3 2.9-2.9 2.9C9.3 41 8 39.7 8 38m28.1-7c0-1.6 1.3-2.9 2.9-2.9 1.6 0 2.9 1.3 2.9 2.9 0 1.6-1.3 2.9-2.9 2.9-1.6.1-2.9-1.3-2.9-2.9m-7 0c0-1.6 1.3-2.9 2.9-2.9 1.6 0 2.9 1.3 2.9 2.9 0 1.6-1.3 2.9-2.9 2.9-1.6.1-2.9-1.3-2.9-2.9m-7 0c0-1.6 1.3-2.9 2.9-2.9 1.6 0 2.9 1.3 2.9 2.9 0 1.6-1.3 2.9-2.9 2.9-1.6.1-2.9-1.3-2.9-2.9M15 31c0-1.6 1.3-2.9 2.9-2.9 1.6 0 2.9 1.3 2.9 2.9 0 1.6-1.3 2.9-2.9 2.9-1.5.1-2.9-1.3-2.9-2.9m-7 0c0-1.6 1.3-2.9 2.9-2.9 1.6 0 2.9 1.3 2.9 2.9 0 1.6-1.3 2.9-2.9 2.9C9.3 34 8 32.6 8 31m28.1-7c0-1.6 1.3-2.9 2.9-2.9 1.6 0 2.9 1.3 2.9 2.9 0 1.6-1.3 2.9-2.9 2.9-1.6 0-2.9-1.3-2.9-2.9m-7 0c0-1.6 1.3-2.9 2.9-2.9 1.6 0 2.9 1.3 2.9 2.9 0 1.6-1.3 2.9-2.9 2.9-1.6 0-2.9-1.3-2.9-2.9m-7 0c0-1.6 1.3-2.9 2.9-2.9 1.6 0 2.9 1.3 2.9 2.9 0 1.6-1.3 2.9-2.9 2.9-1.6 0-2.9-1.3-2.9-2.9M15 24c0-1.6 1.3-2.9 2.9-2.9 1.6 0 2.9 1.3 2.9 2.9 0 1.6-1.3 2.9-2.9 2.9-1.5 0-2.9-1.3-2.9-2.9m-7 0c0-1.6 1.3-2.9 2.9-2.9 1.6 0 2.9 1.3 2.9 2.9 0 1.6-1.3 2.9-2.9 2.9C9.3 26.9 8 25.6 8 24m-7 0c0-1.6 1.3-2.9 2.9-2.9 1.6 0 2.9 1.3 2.9 2.9 0 1.6-1.3 2.9-2.9 2.9C2.3 26.9 1 25.6 1 24m35.1-7c0-1.6 1.3-2.9 2.9-2.9 1.6 0 2.9 1.3 2.9 2.9s-1.3 2.9-2.9 2.9c-1.6 0-2.9-1.3-2.9-2.9m-7 0c0-1.6 1.3-2.9 2.9-2.9 1.6 0 2.9 1.3 2.9 2.9s-1.3 2.9-2.9 2.9c-1.6 0-2.9-1.3-2.9-2.9m-7 0c0-1.6 1.3-2.9 2.9-2.9 1.6 0 2.9 1.3 2.9 2.9s-1.3 2.9-2.9 2.9c-1.6 0-2.9-1.3-2.9-2.9M15 17c0-1.6 1.3-2.9 2.9-2.9 1.6 0 2.9 1.3 2.9 2.9s-1.3 2.9-2.9 2.9c-1.5 0-2.9-1.3-2.9-2.9m-7 0c0-1.6 1.3-3 3-3 1.6 0 2.9 1.3 2.9 2.9s-1.3 2.9-2.9 2.9c-1.7.1-3-1.2-3-2.8m21.1-7c0-1.7 1.3-3 2.9-3 1.6 0 3 1.3 3 3 0 1.6-1.3 2.9-2.9 2.9-1.7 0-3-1.3-3-2.9m-7 0c0-1.7 1.3-3 2.9-3 1.6 0 2.9 1.3 2.9 2.9 0 1.6-1.3 2.9-2.9 2.9-1.6.1-2.9-1.2-2.9-2.8M15 10c0-1.7 1.4-3 3-3s2.9 1.3 2.9 2.9c0 1.6-1.3 2.9-2.9 2.9-1.6.1-3-1.2-3-2.8m7.1-7.1C22.1 1.3 23.4 0 25 0c1.6 0 2.9 1.3 2.9 2.9 0 1.6-1.3 2.9-2.9 2.9-1.6 0-2.9-1.3-2.9-2.9" fill="#ed1c24"/></svg>