<svg xmlns="http://www.w3.org/2000/svg" viewBox="0 0 56 48"><path fill="#EC2227" d="M39.1 45.1c0-1.6 1.3-2.9 2.9-2.9 1.6 0 2.9 1.3 2.9 2.9 0 1.6-1.3 2.9-2.9 2.9s-2.9-1.3-2.9-2.9m-7 0c0-1.6 1.3-2.9 2.9-2.9s2.9 1.3 2.9 2.9c0 1.6-1.3 2.9-2.9 2.9s-2.9-1.3-2.9-2.9m-7 0c0-1.6 1.3-2.9 2.9-2.9s2.9 1.3 2.9 2.9c0 1.6-1.3 2.9-2.9 2.9s-2.9-1.3-2.9-2.9m-7.1 0c0-1.6 1.3-2.9 2.9-2.9s2.9 1.3 2.9 2.9c0 1.6-1.3 2.9-2.9 2.9-1.5 0-2.9-1.3-2.9-2.9m-7 0c0-1.6 1.3-2.9 2.9-2.9s2.9 1.3 2.9 2.9c0 1.6-1.3 2.9-2.9 2.9-1.6 0-2.9-1.3-2.9-2.9M46.2 24c0-1.6 1.3-2.9 2.9-2.9S52 22.4 52 24s-1.3 2.9-2.9 2.9c-1.6 0-2.9-1.3-2.9-2.9m-7.1 14c0-1.6 1.3-2.9 2.9-2.9s2.9 1.3 2.9 2.9c0 1.6-1.3 2.9-2.9 2.9-1.6.1-2.9-1.2-2.9-2.9m-7 0c0-1.6 1.3-2.9 2.9-2.9s2.9 1.3 2.9 2.9c0 1.6-1.3 2.9-2.9 2.9-1.6.1-2.9-1.2-2.9-2.9m-7 0c0-1.6 1.3-2.9 2.9-2.9s2.9 1.3 2.9 2.9c0 1.6-1.3 2.9-2.9 2.9-1.6.1-2.9-1.2-2.9-2.9M18 38c0-1.6 1.3-2.9 2.9-2.9s2.9 1.3 2.9 2.9c0 1.6-1.3 2.9-2.9 2.9-1.5.1-2.9-1.2-2.9-2.9m-7 0c0-1.6 1.3-2.9 2.9-2.9s2.9 1.3 2.9 2.9c0 1.6-1.3 2.9-2.9 2.9-1.6.1-2.9-1.2-2.9-2.9m28.1-7c0-1.6 1.3-2.9 2.9-2.9 1.6 0 2.9 1.3 2.9 2.9 0 1.6-1.3 2.9-2.9 2.9-1.6.1-2.9-1.3-2.9-2.9m-7 0c0-1.6 1.3-2.9 2.9-2.9s2.9 1.3 2.9 2.9-1.3 2.9-2.9 2.9c-1.6.1-2.9-1.3-2.9-2.9m-7 0c0-1.6 1.3-2.9 2.9-2.9s2.9 1.3 2.9 2.9-1.3 2.9-2.9 2.9c-1.6.1-2.9-1.3-2.9-2.9M18 31c0-1.6 1.3-2.9 2.9-2.9s2.9 1.3 2.9 2.9c0 1.6-1.3 2.9-2.9 2.9-1.5.1-2.9-1.3-2.9-2.9m-7 0c0-1.6 1.3-2.9 2.9-2.9s2.9 1.3 2.9 2.9-1.3 2.9-2.9 2.9C12.3 34 11 32.6 11 31m28.1-7c0-1.6 1.3-2.9 2.9-2.9 1.6 0 2.9 1.3 2.9 2.9s-1.3 2.9-2.9 2.9-2.9-1.3-2.9-2.9m-7 0c0-1.6 1.3-2.9 2.9-2.9s2.9 1.3 2.9 2.9-1.3 2.9-2.9 2.9-2.9-1.3-2.9-2.9m-7 0c0-1.6 1.3-2.9 2.9-2.9s2.9 1.3 2.9 2.9-1.3 2.9-2.9 2.9-2.9-1.3-2.9-2.9M18 24c0-1.6 1.3-2.9 2.9-2.9s2.9 1.3 2.9 2.9-1.3 2.9-2.9 2.9c-1.5 0-2.9-1.3-2.9-2.9m-7 0c0-1.6 1.3-2.9 2.9-2.9s2.9 1.3 2.9 2.9-1.3 2.9-2.9 2.9S11 25.6 11 24m-7 0c0-1.6 1.3-2.9 2.9-2.9s2.9 1.3 2.9 2.9-1.3 2.9-2.9 2.9S4 25.6 4 24m35.1-7c0-1.6 1.3-2.9 2.9-2.9 1.6 0 2.9 1.3 2.9 2.9s-1.3 2.9-2.9 2.9-2.9-1.3-2.9-2.9m-7 0c0-1.6 1.3-2.9 2.9-2.9s2.9 1.3 2.9 2.9-1.3 2.9-2.9 2.9-2.9-1.3-2.9-2.9m-7 0c0-1.6 1.3-2.9 2.9-2.9s2.9 1.3 2.9 2.9-1.3 2.9-2.9 2.9-2.9-1.3-2.9-2.9M18 17c0-1.6 1.3-2.9 2.9-2.9s2.9 1.3 2.9 2.9-1.3 2.9-2.9 2.9c-1.5 0-2.9-1.3-2.9-2.9m-7 0c0-1.6 1.3-3 3-3 1.6 0 2.9 1.3 2.9 2.9s-1.3 2.9-2.9 2.9c-1.7.1-3-1.2-3-2.8m21.1-7c0-1.7 1.3-3 2.9-3 1.6 0 3 1.3 3 3 0 1.6-1.3 2.9-2.9 2.9-1.7 0-3-1.3-3-2.9m-7 0c0-1.7 1.3-3 2.9-3s2.9 1.3 2.9 2.9-1.3 2.9-2.9 2.9c-1.6.1-2.9-1.2-2.9-2.8M18 10c0-1.7 1.4-3 3-3s2.9 1.3 2.9 2.9-1.3 2.9-2.9 2.9c-1.6.1-3-1.2-3-2.8m7.1-7.1C25.1 1.3 26.4 0 28 0s2.9 1.3 2.9 2.9-1.3 2.9-2.9 2.9-2.9-1.3-2.9-2.9"/></svg>