<svg version="1.1" id="Layer_1" xmlns="http://www.w3.org/2000/svg" x="0" y="0" viewBox="0 0 182 48" xml:space="preserve"><style>.st0{fill:#ed1c24}</style><g id="XMLID_43_"><path id="XMLID_42_" class="st0" d="M124.3 35.6c0 1.9-.7 3.4-2.1 4.4-1.4 1-3.4 1.5-6 1.5s-4.9-.3-7-.9l.9-3.9c4.1 1.3 6.7 1.5 7.7.6.4-.4.6-.8.6-1.3s-.3-.9-.9-1.3c-.6-.4-1.4-.7-2.2-1-.9-.3-1.7-.6-2.6-1.1-.8-.4-1.6-1-2.2-1.9-.6-.8-.9-1.8-.9-3 0-1.9.7-3.3 2.1-4.3 1.4-1 3.2-1.5 5.5-1.5s4.5.3 6.7.9l-.7 4c-2.1-.7-3.7-1.1-4.8-1.1-1.9 0-2.8.5-2.8 1.6 0 .8 1.1 1.6 3.2 2.4.8.3 1.7.7 2.5 1.1.8.4 1.6 1 2.1 1.8.6.9.9 1.9.9 3"/><path id="XMLID_41_" class="st0" d="M126.3 41.2V15.8h5.3V25h.1c1.7-1.9 3.5-2.8 5.5-2.8 3.9 0 5.8 2 5.8 6v13.1h-5.3v-12c0-1.8-.9-2.7-2.6-2.7-1 0-2.2.5-3.4 1.4v13.4h-5.4z"/><path class="st0" d="M153.6 25.9c-2.2 0-3.4 2-3.4 5.9 0 4 1.1 5.9 3.4 5.9 2.2 0 3.4-2 3.4-5.9-.1-3.9-1.2-5.9-3.4-5.9m9 6c0 2.8-.7 5.1-2.2 7-1.5 1.8-3.7 2.7-6.8 2.7-3 0-5.3-.9-6.8-2.7-1.5-1.8-2.2-4.1-2.2-7 0-2.8.7-5.2 2.2-7 1.5-1.8 3.7-2.7 6.7-2.7s5.3.9 6.8 2.7c1.5 1.8 2.3 4.1 2.3 7M175.1 35.8c.6-1 .9-2.3.9-4 0-1.7-.3-3-.9-4-.6-1-1.5-1.4-2.6-1.4s-2.1.3-2.9 1v8.8c.8.7 1.8 1 2.9 1 1.2.1 2-.4 2.6-1.4m4.8-11c1.2 1.8 1.8 4.1 1.8 7s-.6 5.2-1.9 7c-1.3 1.8-3.1 2.8-5.5 2.7-1.9 0-3.3-.7-4.5-2.1h-.1v8.5h-5.3V22.5h4.8l.6 1.9h.1c.5-.7 1.3-1.2 2.1-1.6.9-.4 1.8-.6 2.7-.6 2.2-.1 4 .8 5.2 2.6"/><path d="M70.2 31.9c0-2.1-.4-3.8-1.3-5.1-.8-1.3-2.1-2-3.7-2-1.7 0-3.1.6-4.4 1.7v10.9c1.3 1.1 2.7 1.6 4.4 1.6 1.7 0 2.9-.6 3.8-2 .8-1.3 1.2-3 1.2-5.1m3.4-.1c0 2.9-.6 5.2-1.9 7-1.3 1.8-3.1 2.7-5.6 2.7-2.1 0-3.8-.7-5.3-2.2h-.1v8.5h-3.2V22.5h2.9l.3 1.9h.1c1.5-1.5 3.4-2.2 5.7-2.2 2.3 0 4 .9 5.2 2.7 1.3 1.7 1.9 4.1 1.9 6.9M77.7 36.3c0 .9.3 1.6.9 2 .6.5 1.4.7 2.4.7 2.1 0 3.8-.8 5.3-2.4V32c-2.7.2-4.9.7-6.4 1.4-1.4.8-2.2 1.8-2.2 2.9m8.6-8.3c0-2.4-1.4-3.6-4.3-3.6-1.5 0-3.4.5-5.8 1.4l-.7-2.2c5.6-2 9.6-2 12.1 0 1.3 1 1.9 2.4 1.9 4.3v13.3h-2.9l-.3-2.2c-1.9 1.7-3.9 2.6-6.3 2.6-1.6 0-2.9-.4-4-1.3-1-.9-1.6-2-1.6-3.5 0-2.1 1-3.7 2.9-4.7 1.9-1.1 4.9-1.8 8.9-2.1v-2z"/><path id="XMLID_32_" d="M90.5 22.5h3.6l3.4 9.8 1.9 5.9h.1l1.9-5.9 3.5-9.8h3.4L99 47.9h-3.1l2.6-7.3h-1.3z"/><path class="st0" d="M35.5 45.1c0-1.6 1.3-2.9 2.9-2.9 1.6 0 2.9 1.3 2.9 2.9 0 1.6-1.3 2.9-2.9 2.9-1.6 0-2.9-1.3-2.9-2.9m-7 0c0-1.6 1.3-2.9 2.9-2.9 1.6 0 2.9 1.3 2.9 2.9 0 1.6-1.3 2.9-2.9 2.9-1.6 0-2.9-1.3-2.9-2.9m-7 0c0-1.6 1.3-2.9 2.9-2.9 1.6 0 2.9 1.3 2.9 2.9 0 1.6-1.3 2.9-2.9 2.9-1.6 0-2.9-1.3-2.9-2.9m-7.1 0c0-1.6 1.3-2.9 2.9-2.9 1.6 0 2.9 1.3 2.9 2.9 0 1.6-1.3 2.9-2.9 2.9-1.5 0-2.9-1.3-2.9-2.9m-7 0c0-1.6 1.3-2.9 2.9-2.9 1.6 0 2.9 1.3 2.9 2.9 0 1.6-1.3 2.9-2.9 2.9-1.6 0-2.9-1.3-2.9-2.9M42.5 24c0-1.6 1.3-2.9 2.9-2.9 1.6 0 2.9 1.3 2.9 2.9 0 1.6-1.3 2.9-2.9 2.9-1.6 0-2.9-1.3-2.9-2.9m-7 14c0-1.6 1.3-2.9 2.9-2.9 1.6 0 2.9 1.3 2.9 2.9 0 1.6-1.3 2.9-2.9 2.9-1.6.1-2.9-1.2-2.9-2.9m-7 0c0-1.6 1.3-2.9 2.9-2.9 1.6 0 2.9 1.3 2.9 2.9 0 1.6-1.3 2.9-2.9 2.9-1.6.1-2.9-1.2-2.9-2.9m-7 0c0-1.6 1.3-2.9 2.9-2.9 1.6 0 2.9 1.3 2.9 2.9 0 1.6-1.3 2.9-2.9 2.9-1.6.1-2.9-1.2-2.9-2.9m-7.1 0c0-1.6 1.3-2.9 2.9-2.9 1.6 0 2.9 1.3 2.9 2.9 0 1.6-1.3 2.9-2.9 2.9-1.5.1-2.9-1.2-2.9-2.9m-7 0c0-1.6 1.3-2.9 2.9-2.9 1.6 0 2.9 1.3 2.9 2.9 0 1.6-1.3 2.9-2.9 2.9-1.6.1-2.9-1.2-2.9-2.9m28.1-7c0-1.6 1.3-2.9 2.9-2.9 1.6 0 2.9 1.3 2.9 2.9 0 1.6-1.3 2.9-2.9 2.9-1.6.1-2.9-1.3-2.9-2.9m-7 0c0-1.6 1.3-2.9 2.9-2.9 1.6 0 2.9 1.3 2.9 2.9 0 1.6-1.3 2.9-2.9 2.9-1.6.1-2.9-1.3-2.9-2.9m-7 0c0-1.6 1.3-2.9 2.9-2.9 1.6 0 2.9 1.3 2.9 2.9 0 1.6-1.3 2.9-2.9 2.9-1.6.1-2.9-1.3-2.9-2.9m-7.1 0c0-1.6 1.3-2.9 2.9-2.9 1.6 0 2.9 1.3 2.9 2.9 0 1.6-1.3 2.9-2.9 2.9-1.5.1-2.9-1.3-2.9-2.9m-7 0c0-1.6 1.3-2.9 2.9-2.9 1.6 0 2.9 1.3 2.9 2.9 0 1.6-1.3 2.9-2.9 2.9-1.6.1-2.9-1.3-2.9-2.9m28.1-7c0-1.6 1.3-2.9 2.9-2.9 1.6 0 2.9 1.3 2.9 2.9 0 1.6-1.3 2.9-2.9 2.9-1.6 0-2.9-1.3-2.9-2.9m-7 0c0-1.6 1.3-2.9 2.9-2.9 1.6 0 2.9 1.3 2.9 2.9 0 1.6-1.3 2.9-2.9 2.9-1.6 0-2.9-1.3-2.9-2.9m-7 0c0-1.6 1.3-2.9 2.9-2.9 1.6 0 2.9 1.3 2.9 2.9 0 1.6-1.3 2.9-2.9 2.9-1.6 0-2.9-1.3-2.9-2.9m-7.1 0c0-1.6 1.3-2.9 2.9-2.9 1.6 0 2.9 1.3 2.9 2.9 0 1.6-1.3 2.9-2.9 2.9-1.5 0-2.9-1.3-2.9-2.9m-7 0c0-1.6 1.3-2.9 2.9-2.9 1.6 0 2.9 1.3 2.9 2.9 0 1.6-1.3 2.9-2.9 2.9-1.6 0-2.9-1.3-2.9-2.9m-7 0c0-1.6 1.3-2.9 2.9-2.9 1.6 0 2.9 1.3 2.9 2.9 0 1.6-1.3 2.9-2.9 2.9C1.7 26.9.4 25.6.4 24m35.1-7c0-1.6 1.3-2.9 2.9-2.9 1.6 0 2.9 1.3 2.9 2.9s-1.3 2.9-2.9 2.9c-1.6 0-2.9-1.3-2.9-2.9m-7 0c0-1.6 1.3-2.9 2.9-2.9 1.6 0 2.9 1.3 2.9 2.9s-1.3 2.9-2.9 2.9c-1.6 0-2.9-1.3-2.9-2.9m-7 0c0-1.6 1.3-2.9 2.9-2.9 1.6 0 2.9 1.3 2.9 2.9s-1.3 2.9-2.9 2.9c-1.6 0-2.9-1.3-2.9-2.9m-7.1 0c0-1.6 1.3-2.9 2.9-2.9 1.6 0 2.9 1.3 2.9 2.9s-1.3 2.9-2.9 2.9c-1.5 0-2.9-1.3-2.9-2.9m-7 0c0-1.6 1.3-2.9 2.9-2.9 1.6 0 2.9 1.3 2.9 2.9s-1.3 2.9-2.9 2.9c-1.6 0-2.9-1.3-2.9-2.9m21.1-7c0-1.6 1.3-2.9 2.9-2.9 1.6 0 2.9 1.3 2.9 2.9 0 1.6-1.3 2.9-2.9 2.9-1.6 0-2.9-1.3-2.9-2.9m-7 0c0-1.6 1.3-2.9 2.9-2.9 1.6 0 2.9 1.3 2.9 2.9 0 1.6-1.3 2.9-2.9 2.9-1.6 0-2.9-1.3-2.9-2.9m-7.1 0c0-1.6 1.3-2.9 2.9-2.9 1.6 0 2.9 1.3 2.9 2.9 0 1.6-1.3 2.9-2.9 2.9-1.5 0-2.9-1.3-2.9-2.9m7.1-7.1c0-1.6 1.3-2.9 2.9-2.9 1.6 0 2.9 1.3 2.9 2.9 0 1.6-1.3 2.9-2.9 2.9-1.6 0-2.9-1.3-2.9-2.9"/></g></svg>