<svg xmlns="http://www.w3.org/2000/svg" id="Layer_2" version="1.1" viewBox="0 0 136 48"><defs><style>.st0{fill:#32bcad}.st1{fill:#939598}</style></defs><g id="layer1"><path d="M56.012 45.668a.848.848 0 0 1-.848-.848V17.292c0-5.524 4.495-10.019 10.019-10.019l8.129.013c5.506.01 9.985 4.499 9.985 10.005v5.859c0 5.524-4.494 10.019-10.018 10.019H61.794a.848.848 0 0 1 0-1.696h11.485c4.59 0 8.323-3.733 8.323-8.323v-5.86c0-4.572-3.72-8.3-8.293-8.309l-8.127-.012c-4.588 0-8.322 3.734-8.322 8.323V44.82c0 .468-.38.848-.848.848ZM92.01 33.292a.848.848 0 0 1-.848-.848V11.881a2.92 2.92 0 0 0-2.915-2.916H84.72a.848.848 0 0 1 0-1.695h3.526a4.617 4.617 0 0 1 4.61 4.611v20.563c0 .469-.379.848-.847.848Z" class="st1"/><path id="path2364" d="m91.254 4.932-1.599-1.6a1.016 1.016 0 0 1 0-1.436L91.253.298a1.017 1.017 0 0 1 1.439 0l1.598 1.598c.397.397.397 1.04 0 1.437l-1.6 1.599a1.016 1.016 0 0 1-1.436 0" class="st0"/><path d="M117.162 19.906c-.951 0-1.845-.37-2.517-1.043l-8.178-8.178a5.896 5.896 0 0 0-4.197-1.738h-3.496a.848.848 0 1 1 0-1.696h3.496a7.58 7.58 0 0 1 5.395 2.235l8.178 8.178c.353.352.821.546 1.32.546.497 0 .966-.194 1.318-.546l8.148-8.148a7.58 7.58 0 0 1 5.395-2.235h2.843a.848.848 0 0 1 0 1.696h-2.843a5.896 5.896 0 0 0-4.196 1.738l-8.148 8.148a3.537 3.537 0 0 1-2.518 1.043ZM102.27 33.112h-3.496a.848.848 0 1 1 0-1.696h3.496a5.895 5.895 0 0 0 4.197-1.738l8.178-8.178c.672-.672 1.566-1.042 2.517-1.042s1.845.37 2.518 1.042l8.148 8.148a5.895 5.895 0 0 0 4.196 1.739h2.843a.848.848 0 1 1 0 1.695h-2.843a7.58 7.58 0 0 1-5.395-2.234l-8.148-8.149a1.853 1.853 0 0 0-1.319-.546c-.498 0-.966.194-1.318.546l-8.179 8.179a7.58 7.58 0 0 1-5.395 2.234Z" class="st1"/><path id="path2376" d="M35.167 37.489a6.53 6.53 0 0 1-4.647-1.924l-6.708-6.708c-.471-.473-1.292-.471-1.763 0l-6.733 6.733a6.53 6.53 0 0 1-4.646 1.923H9.348l8.496 8.497a6.795 6.795 0 0 0 9.61 0l8.52-8.521h-.807Z" class="st0"/><path id="path2380" d="M10.67 13.76a6.53 6.53 0 0 1 4.646 1.923l6.733 6.734a1.247 1.247 0 0 0 1.763 0l6.708-6.71a6.53 6.53 0 0 1 4.647-1.923h.808l-8.521-8.52a6.795 6.795 0 0 0-9.61 0l-8.496 8.495h1.322Z" class="st0"/><path id="path2384" d="m43.023 20.832-5.15-5.15a.981.981 0 0 1-.365.074h-2.341c-1.21 0-2.396.491-3.25 1.347l-6.71 6.709a3.21 3.21 0 0 1-2.276.942c-.825 0-1.65-.314-2.277-.942L13.92 17.08a4.626 4.626 0 0 0-3.25-1.347H7.79a.976.976 0 0 1-.346-.07l-5.17 5.17a6.795 6.795 0 0 0 0 9.61l5.17 5.169a.978.978 0 0 1 .346-.07h2.879c1.21 0 2.395-.49 3.25-1.347l6.733-6.733c1.217-1.216 3.339-1.216 4.555 0l6.708 6.709a4.627 4.627 0 0 0 3.25 1.346h2.342a.98.98 0 0 1 .365.074l5.15-5.149a6.795 6.795 0 0 0 0-9.61" class="st0"/><path id="path2388" d="M63.001 42.48c-.38 0-.822.091-1.26.192v1.677c.304.111.65.164.981.164.842 0 1.24-.283 1.24-1.024 0-.697-.326-1.01-.96-1.01m-1.544 3.116v-3.317h.23l.025.144c.39-.091.927-.212 1.312-.212.313 0 .61.048.86.25.29.236.38.616.38 1.029 0 .433-.144.842-.538 1.067-.274.154-.644.217-.976.217a3.51 3.51 0 0 1-1.01-.154v.976h-.283Z" class="st1"/><path id="path2392" d="M66.378 42.47c-.842 0-1.217.264-1.217 1.005 0 .716.37 1.038 1.217 1.038.836 0 1.21-.26 1.21-1 0-.716-.37-1.043-1.21-1.043m1.081 2.043c-.279.202-.654.26-1.081.26-.438 0-.813-.063-1.087-.26-.308-.216-.433-.572-.433-1.019 0-.443.125-.803.433-1.024.274-.197.65-.26 1.087-.26.432 0 .802.063 1.081.26.313.221.433.581.433 1.019 0 .447-.125.808-.433 1.024" class="st1"/><path id="path2396" d="m71.442 44.705-.938-2.014h-.02l-.922 2.014h-.255l-1-2.428h.313l.831 2.039h.02l.903-2.039h.26l.928 2.039h.02l.812-2.039h.302l-1 2.428h-.254Z" class="st1"/><path id="path2400" d="M74.51 42.465c-.78 0-1.044.346-1.092.846h2.183c-.024-.552-.308-.846-1.091-.846m-.01 2.308c-.466 0-.77-.068-1.01-.27-.283-.245-.38-.6-.38-1.009 0-.39.13-.803.453-1.038.269-.188.6-.246.947-.246.312 0 .673.034.97.236.352.235.42.65.42 1.12h-2.491c.01.5.173.943 1.115.943.447 0 .865-.073 1.255-.14v.254c-.404.073-.851.15-1.279.15" class="st1"/><path id="path2404" d="M76.713 44.705v-2.428h.23l.025.145c.514-.13.755-.212 1.207-.212h.033v.27h-.067c-.38 0-.61.052-1.144.192v2.033h-.284Z" class="st1"/><path id="path2408" d="M79.856 42.465c-.779 0-1.043.346-1.092.846h2.183c-.024-.552-.308-.846-1.091-.846m-.01 2.308c-.466 0-.769-.068-1.01-.27-.283-.245-.38-.6-.38-1.009 0-.39.13-.803.453-1.038.269-.188.6-.246.947-.246.312 0 .673.034.97.236.352.235.42.65.42 1.12h-2.491c.01.5.173.943 1.115.943.447 0 .865-.073 1.255-.14v.254c-.404.073-.851.15-1.279.15" class="st1"/><path id="path2412" d="M84.353 42.634a2.912 2.912 0 0 0-.981-.164c-.841 0-1.24.284-1.24 1.024 0 .702.326 1.01.96 1.01.38 0 .823-.092 1.26-.188v-1.682Zm.053 2.071-.024-.144c-.39.091-.928.212-1.313.212-.312 0-.61-.043-.86-.25-.289-.236-.38-.616-.38-1.029 0-.433.144-.842.538-1.063.274-.158.644-.22.98-.22.337 0 .664.057 1.006.153v-1.11h.283v3.451h-.23Z" class="st1"/><path id="path2416" d="M88.795 42.48c-.38 0-.822.091-1.26.192v1.673c.309.115.65.168.982.168.84 0 1.24-.283 1.24-1.024 0-.697-.327-1.01-.962-1.01m.726 2.077c-.274.154-.644.217-.976.217-.36 0-.72-.063-1.086-.183l-.015.116h-.192v-3.452h.284v1.158c.39-.086.913-.202 1.283-.202.313 0 .61.048.86.25.29.236.38.616.38 1.029 0 .433-.144.842-.538 1.067" class="st1"/><path id="path2420" d="M90.436 45.638v-.264c.14.014.27.024.36.024.352 0 .563-.101.76-.5l.092-.193-1.27-2.428h.328l1.086 2.096h.02l1.033-2.096h.322l-1.365 2.727c-.25.495-.52.658-1.015.658-.11 0-.23-.01-.35-.024" class="st1"/><path id="path2424" d="M97.076 43.32h-.942v.852h.947c.649 0 .894-.072.894-.428 0-.38-.336-.423-.899-.423m-.173-1.38h-.769v.865h.774c.64 0 .894-.076.894-.437 0-.384-.322-.428-.899-.428m1.462 2.534c-.347.221-.765.23-1.53.23h-1.437v-3.293h1.404c.659 0 1.063.01 1.4.212.24.144.336.365.336.654 0 .345-.144.577-.52.73v.02c.424.096.698.312.698.779 0 .317-.116.523-.351.668" class="st1"/><path id="path2428" d="M101.592 43.686a10.177 10.177 0 0 0-.875-.038c-.495 0-.669.1-.669.326 0 .212.145.328.524.328.318 0 .697-.072 1.02-.145v-.47Zm.144 1.02-.02-.145c-.413.101-.894.212-1.317.212-.26 0-.538-.034-.735-.178-.183-.13-.27-.342-.27-.587 0-.274.12-.529.409-.658.255-.12.596-.13.909-.13.255 0 .596.014.88.034v-.044c0-.38-.25-.505-.933-.505a9.95 9.95 0 0 0-.894.043v-.49c.34-.028.726-.048 1.043-.048.423 0 .86.034 1.13.226.278.197.332.472.332.832v1.437h-.534Z" class="st1"/><path id="path2432" d="M105.44 44.705v-1.341c0-.442-.227-.6-.63-.6-.298 0-.673.076-.99.153v1.788h-.679v-2.428h.553l.024.154c.428-.11.904-.22 1.298-.22.298 0 .601.042.832.25.192.173.264.413.264.759v1.485h-.673Z" class="st1"/><path id="path2436" d="M108.027 44.773c-.312 0-.654-.043-.903-.255-.298-.24-.385-.62-.385-1.03 0-.383.125-.802.495-1.037.303-.198.678-.24 1.067-.24.28 0 .553.019.856.047v.52a8.736 8.736 0 0 0-.774-.044c-.644 0-.947.202-.947.76 0 .524.226.75.755.75.307 0 .668-.058 1.02-.125v.5c-.38.077-.794.154-1.184.154" class="st1"/><path id="path2440" d="M111.212 42.72c-.644 0-.928.202-.928.755 0 .553.28.788.928.788.64 0 .918-.197.918-.75 0-.553-.273-.793-.918-.793m1.164 1.798c-.298.202-.688.255-1.164.255-.485 0-.875-.058-1.168-.255-.336-.221-.457-.586-.457-1.024 0-.438.12-.808.457-1.029.293-.197.683-.255 1.168-.255.481 0 .866.058 1.164.255.336.221.452.591.452 1.024 0 .438-.12.808-.452 1.029" class="st1"/><path id="path2444" d="M116.741 44.773c-.408 0-.85-.067-1.182-.342-.394-.327-.515-.831-.515-1.375 0-.485.154-1.062.669-1.398.398-.26.894-.313 1.394-.313.365 0 .74.024 1.149.058v.591a14.857 14.857 0 0 0-1.12-.053c-.938 0-1.337.356-1.337 1.115 0 .775.37 1.12 1.063 1.12.451 0 .956-.09 1.466-.197v.587c-.51.101-1.044.207-1.587.207" class="st1"/><path id="path2448" d="M120.32 42.643c-.563 0-.78.202-.822.572h1.634c-.02-.394-.25-.572-.812-.572m-.101 2.13c-.4 0-.76-.048-1.03-.27-.287-.24-.389-.6-.389-1.014 0-.37.12-.784.457-1.024.298-.211.678-.255 1.063-.255.346 0 .755.039 1.052.245.39.275.424.698.428 1.198h-2.307c.014.37.211.61.894.61.423 0 .894-.062 1.293-.125v.476c-.466.077-.976.159-1.461.159" class="st1"/><path id="path2452" d="M124.816 44.705v-1.341c0-.442-.225-.6-.63-.6-.298 0-.672.076-.99.153v1.788h-.678v-2.428h.553l.024.154c.428-.11.904-.22 1.298-.22.298 0 .601.042.832.25.192.173.264.413.264.759v1.485h-.673Z" class="st1"/><path id="path2456" d="M127.419 44.773c-.327 0-.625-.092-.789-.346-.12-.174-.178-.409-.178-.736v-.909h-.49v-.504h.49l.073-.736h.6v.736h.957v.504h-.956v.78c0 .187.014.345.067.46.072.164.23.227.442.227.159 0 .351-.025.486-.048v.485a3.807 3.807 0 0 1-.702.087" class="st1"/><path id="path2460" d="M128.744 44.705v-2.428h.553l.024.154c.447-.125.778-.22 1.202-.22.019 0 .048 0 .086.004v.577c-.077-.004-.168-.004-.236-.004a3.8 3.8 0 0 0-.952.125v1.792h-.677Z" class="st1"/><path id="path2464" d="M133.073 43.686a10.173 10.173 0 0 0-.875-.038c-.495 0-.668.1-.668.326 0 .212.144.328.524.328.317 0 .697-.072 1.02-.145v-.47Zm.144 1.02-.019-.145c-.413.101-.894.212-1.317.212-.26 0-.539-.034-.736-.178-.182-.13-.269-.342-.269-.587 0-.274.12-.529.409-.658.255-.12.596-.13.909-.13.254 0 .596.014.88.034v-.044c0-.38-.25-.505-.934-.505-.264 0-.586.015-.894.043v-.49c.341-.028.726-.048 1.044-.048.423 0 .86.034 1.13.226.278.197.331.472.331.832v1.437h-.534Z" class="st1"/><path id="path2466" d="M134.623 41.254h.678v3.451h-.678v-3.451Z" class="st1"/></g></svg>