<svg xmlns="http://www.w3.org/2000/svg" id="svg859" version="1.1" viewBox="0 0 136 48"><defs><style>.st0{fill:#32bcad}.st1{fill:#939598}</style></defs><g id="layer1"><path d="M56 45.7c-.5 0-.8-.4-.8-.8V17.4c0-5.5 4.5-10 10-10h8.1c5.5 0 10 4.5 10 10v5.9c0 5.5-4.5 10-10 10H61.8c-.5 0-.8-.4-.8-.8s.4-.8.8-.8h11.5c4.6 0 8.3-3.7 8.3-8.3v-5.9c0-4.6-3.7-8.3-8.3-8.3h-8.1c-4.6 0-8.3 3.7-8.3 8.3V45c0 .5-.4.8-.8.8ZM92 33.3c-.5 0-.8-.4-.8-.8V11.9c0-1.6-1.3-2.9-2.9-2.9h-3.5c-.5 0-.8-.4-.8-.8s.4-.8.8-.8h3.5c2.5 0 4.6 2.1 4.6 4.6v20.6c0 .5-.4.8-.8.8Z" class="st1"/><path id="path2364" d="m91.3 4.9-1.6-1.6c-.4-.4-.4-1 0-1.4L91.3.3c.4-.4 1-.4 1.4 0l1.6 1.6c.4.4.4 1 0 1.4l-1.6 1.6c-.4.4-1 .4-1.4 0" class="st0"/><path d="M117.2 19.9c-1 0-1.8-.4-2.5-1l-8.2-8.2c-1.1-1.1-2.6-1.7-4.2-1.7h-3.5c-.5 0-.8-.4-.8-.8s.4-.8.8-.8h3.5c2 0 4 .8 5.4 2.2l8.2 8.2c.4.4.8.5 1.3.5s1-.2 1.3-.5l8.1-8.1c1.4-1.4 3.4-2.2 5.4-2.2h2.8c.5 0 .8.4.8.8s-.4.8-.8.8H132c-1.6 0-3.1.6-4.2 1.7l-8.1 8.1c-.7.7-1.6 1-2.5 1ZM102.3 33.1h-3.5c-.5 0-.8-.4-.8-.8s.4-.8.8-.8h3.5c1.6 0 3.1-.6 4.2-1.7l8.2-8.2c.7-.7 1.6-1 2.5-1s1.8.4 2.5 1l8.1 8.1c1.1 1.1 2.6 1.7 4.2 1.7h2.8c.5 0 .8.4.8.8s-.4.8-.8.8H132c-2 0-4-.8-5.4-2.2l-8.1-8.1c-.4-.4-.8-.5-1.3-.5s-1 .2-1.3.5l-8.2 8.2c-1.4 1.4-3.4 2.2-5.4 2.2Z" class="st1"/><path id="path2376" d="M35.2 37.5c-1.8 0-3.4-.7-4.6-1.9l-6.7-6.7c-.5-.5-1.3-.5-1.8 0l-6.7 6.7c-1.2 1.2-2.9 1.9-4.6 1.9H9.5L18 46c2.7 2.7 7 2.7 9.6 0l8.5-8.5h-.8Z" class="st0"/><path id="path2380" d="M10.7 13.8c1.8 0 3.4.7 4.6 1.9l6.7 6.7c.5.5 1.3.5 1.8 0l6.7-6.7c1.2-1.2 2.9-1.9 4.6-1.9h.8l-8.5-8.5c-2.7-2.7-7-2.7-9.6 0l-8.5 8.5h1.3Z" class="st0"/><path id="path2384" d="m43 20.8-5.1-5.1H35.2c-1.2 0-2.4.5-3.3 1.3l-6.7 6.7c-.6.6-1.5.9-2.3.9s-1.6-.3-2.3-.9L13.9 17c-.9-.9-2-1.3-3.3-1.3H7.4l-5.2 5.2c-2.7 2.7-2.7 7 0 9.6l5.2 5.2H10.6c1.2 0 2.4-.5 3.3-1.3l6.7-6.7c1.2-1.2 3.3-1.2 4.6 0l6.7 6.7c.9.9 2 1.3 3.3 1.3H37.9l5.1-5.1c2.7-2.7 2.7-7 0-9.6" class="st0"/><path id="path2388" d="M63 42.5c-.4 0-.8 0-1.3.2v1.7c.3.1.6.2 1 .2.8 0 1.2-.3 1.2-1s-.3-1-1-1m-1.4 3v-3.3h1.6c.4 0 .6 0 .9.2.3.2.4.6.4 1s-.1.8-.5 1.1c-.3.2-.6.2-1 .2s-.7 0-1-.2v1h-.3Z" class="st1"/><path id="path2392" d="M66.4 42.5c-.8 0-1.2.3-1.2 1s.4 1 1.2 1 1.2-.3 1.2-1-.4-1-1.2-1m1.1 2c-.3.2-.7.3-1.1.3s-.8 0-1.1-.3c-.3-.2-.4-.6-.4-1s.1-.8.4-1c.3-.2.6-.3 1.1-.3s.8 0 1.1.3c.3.2.4.6.4 1s-.1.8-.4 1" class="st1"/><path id="path2396" d="m71.4 44.7-.9-2-.9 2h-.3l-1-2.4h.3l.8 2 .9-2h.3l.9 2 .8-2h.3l-1 2.4h-.3Z" class="st1"/><path id="path2400" d="M74.5 42.5c-.8 0-1 .3-1.1.8h2.2c0-.6-.3-.8-1.1-.8m0 2.3c-.5 0-.8 0-1-.3-.3-.2-.4-.6-.4-1s.1-.8.5-1c.3-.2.6-.2.9-.2s.7 0 1 .2c.4.2.4.6.4 1.1h-2.5c0 .5.2.9 1.1.9s.9 0 1.3-.1v.3c-.4 0-.9.1-1.3.1" class="st1"/><path id="path2404" d="M76.7 44.7v-2.4h1.5v.3c-.4 0-.6 0-1.1.2v2h-.3Z" class="st1"/><path id="path2408" d="M79.9 42.5c-.8 0-1 .3-1.1.8H81c0-.6-.3-.8-1.1-.8m-.1 2.3c-.5 0-.8 0-1-.3-.3-.2-.4-.6-.4-1s.1-.8.5-1c.3-.2.6-.2.9-.2s.7 0 1 .2c.4.2.4.6.4 1.1h-2.5c0 .5.2.9 1.1.9s.9 0 1.3-.1v.3c-.4 0-.9.1-1.3.1" class="st1"/><path id="path2412" d="M84.4 42.6c-.3-.1-.6-.2-1-.2-.8 0-1.2.3-1.2 1s.3 1 1 1 .8 0 1.3-.2v-1.7Zm0 2.1h-1.3c-.4 0-.6 0-.9-.2-.3-.2-.4-.6-.4-1s.1-.8.5-1.1c.3-.2.6-.2 1-.2s.7 0 1 .2v-1.1h.3v3.5h-.2Z" class="st1"/><path id="path2416" d="M88.8 42.5c-.4 0-.8 0-1.3.2v1.7c.3.1.6.2 1 .2.8 0 1.2-.3 1.2-1s-.3-1-1-1m.8 2c-.3.2-.6.2-1 .2s-.7 0-1.1-.2c0 .1-.2.1-.2.1v-3.5h.3v1.2c.4 0 .9-.2 1.3-.2s.6 0 .9.2c.3.2.4.6.4 1s-.1.8-.5 1.1" class="st1"/><path id="path2420" d="M90.4 45.6v-.3h.4c.4 0 .6-.1.8-.5v-.2l-1.2-2.4h.3l1.1 2.1 1-2.1h.3l-1.4 2.7c-.2.5-.5.7-1 .7h-.4" class="st1"/><path id="path2424" d="M97.1 43.3h-.9v.9h.9c.6 0 .9 0 .9-.4s-.3-.4-.9-.4m-.2-1.5h-.8v.9h.8c.6 0 .9 0 .9-.4s-.3-.4-.9-.4m1.5 2.5c-.3.2-.8.2-1.5.2h-1.4v-3.3h1.4c.7 0 1.1 0 1.4.2.2.1.3.4.3.7s-.1.6-.5.7c.4.1.7.3.7.8s-.1.5-.4.7" class="st1"/><path id="path2428" d="M101.6 43.7h-.9c-.5 0-.7.1-.7.3s.1.3.5.3.7 0 1-.1v-.5Zm.1 1h-1.3c-.4 0-.5 0-.7-.2-.2-.1-.3-.3-.3-.6s.1-.5.4-.7c.3-.1.6-.1.9-.1h.9c0-.4-.3-.5-.9-.5h-.9v-.5h1c.3 0 .9 0 1.1.2.3.2.3.5.3.8v1.4h-.5Z" class="st1"/><path id="path2432" d="M105.4 44.7v-1.3c0-.4-.2-.6-.6-.6s-.7 0-1 .2v1.8h-.7v-2.4h.6v.2c.5-.1.9-.2 1.3-.2s.6 0 .8.2c.2.2.3.4.3.8v1.5h-.7Z" class="st1"/><path id="path2436" d="M108 44.8c-.3 0-.7 0-.9-.3-.3-.2-.4-.6-.4-1s.1-.8.5-1c.3-.2.7-.2 1.1-.2h.9v.5h-.8c-.6 0-.9.2-.9.8s.2.7.8.7.7 0 1-.1v.5c-.4 0-.8.2-1.2.2" class="st1"/><path id="path2440" d="M111.2 42.7c-.6 0-.9.2-.9.8s.3.8.9.8.9-.2.9-.8-.3-.8-.9-.8m1.2 1.8c-.3.2-.7.3-1.2.3s-.9 0-1.2-.3c-.3-.2-.5-.6-.5-1s.1-.8.5-1c.3-.2.7-.3 1.2-.3s.9 0 1.2.3c.3.2.5.6.5 1s-.1.8-.5 1" class="st1"/><path id="path2444" d="M116.7 44.8c-.4 0-.9 0-1.2-.3-.4-.3-.5-.8-.5-1.4s.2-1.1.7-1.4c.4-.3.9-.3 1.4-.3h1.1v.6h-1.1c-.9 0-1.3.4-1.3 1.1s.4 1.1 1.1 1.1 1 0 1.5-.2v.6c-.5.1-1 .2-1.6.2" class="st1"/><path id="path2448" d="M120.3 42.6c-.6 0-.8.2-.8.6h1.6c0-.4-.3-.6-.8-.6m-.1 2.2c-.4 0-.8 0-1-.3-.3-.2-.4-.6-.4-1s.1-.8.5-1c.3-.2.7-.3 1.1-.3s.8 0 1.1.2c.4.3.4.7.4 1.2h-2.3c0 .4.2.6.9.6s.9 0 1.3-.1v.5c-.5 0-1 .2-1.5.2" class="st1"/><path id="path2452" d="M124.8 44.7v-1.3c0-.4-.2-.6-.6-.6s-.7 0-1 .2v1.8h-.7v-2.4h.6v.2c.5-.1.9-.2 1.3-.2s.6 0 .8.2c.2.2.3.4.3.8v1.5h-.7Z" class="st1"/><path id="path2456" d="M127.4 44.8c-.3 0-.6 0-.8-.3-.1-.2-.2-.4-.2-.7v-.9h-.5v-.5h.5v-.7h.7v.7h1v.5h-1v1.3c0 .2.2.2.4.2h.5v.5h-.7" class="st1"/><path id="path2460" d="M128.7 44.7v-2.4h.6v.2c.5-.1.8-.2 1.2-.2v.6h-.2c-.3 0-.6 0-1 .1v1.8h-.7Z" class="st1"/><path id="path2464" d="M133.1 43.7h-.9c-.5 0-.7.1-.7.3s.1.3.5.3.7 0 1-.1v-.5Zm.1 1h-1.3c-.4 0-.5 0-.7-.2-.2-.1-.3-.3-.3-.6s.1-.5.4-.7c.3-.1.6-.1.9-.1h.9c0-.4-.3-.5-.9-.5h-.9v-.5h1c.3 0 .9 0 1.1.2.3.2.3.5.3.8v1.4h-.5Z" class="st1"/><path id="path2466" d="M134.6 41.3h.7v3.5h-.7v-3.5Z" class="st1"/></g></svg>