<svg xmlns="http://www.w3.org/2000/svg" viewBox="0 0 1200 533.3" xml:space="preserve"><style>.st2{fill:#fff}.st3{fill:#0b68af}</style><g id="Logos"><path d="M1191.7 215.6c-5.6-12.7-13.9-22.9-25-30.7-11.1-7.8-24.5-11.7-40.1-11.7-16.1 0-30.7 4.4-43.6 13.3-13 8.9-23.2 21.2-30.7 36.9-2.8 5.9-5.1 12.1-6.9 18.6-9.2 1.8-17.6 3-25.1 3.5-2.1-20.4-9.3-37.5-21.6-51.4-12.3-13.9-28.5-20.8-48.6-20.8-16.4 0-31.3 4.4-44.8 13.3-13.5 8.9-24.1 21.2-31.7 36.9-2.8 5.8-5.1 11.8-6.9 18.2-12.6 2.4-23 3.8-31.2 4.2 6.3-15.3 9.5-29 9.5-40.9 0-10.3-2.4-18.2-7.1-23.6-4.8-5.4-11-8.1-18.6-8.1-8.7 0-16.5 2.6-23.4 7.9-6.9 5.3-12.3 12.2-16.3 20.6-4 8.5-5.9 17.2-5.9 26.2 0 10.6 2 19.7 5.9 27.4-7.9 14-19.8 32.8-35.7 56.3-3.7-48.7-5.6-88.2-5.6-118.6 0-7.4-1.4-12.6-4.2-15.5-2.8-2.9-7.7-4.4-14.9-4.4-5.8 0-10.8 1.4-14.9 4.2-4.1 2.8-7.6 8.1-10.5 16.1-15.1 41-31.6 80.4-49.6 118.2-3.7-48.7-5.6-88.2-5.6-118.6 0-7.1-1.7-12.2-5-15.3-3.3-3-8.4-4.6-15.3-4.6-9 0-15.7 1.7-20.2 5.2-4.5 3.4-6.9 9.5-7.1 18.2v13.9c0 27.8 1.6 60.2 4.8 97.2 1.6 18.2 5.5 31.6 11.7 40.1 6.2 8.5 14.7 12.7 25.6 12.7 8.7 0 16.3-2.2 22.8-6.7s13-12.6 19.4-24.2c6.5-11.6 13.8-28.6 22-50.8l2 29c1.3 18.8 4.7 32.3 10.1 40.5 5.4 8.2 13.4 12.3 24 12.3 9.5 0 18.1-2.8 25.6-8.3 7.5-5.6 16.6-15.9 27.2-30.9 9.3-13.2 17.7-26 25.4-38.5 10.3 3.2 21.3 4.8 32.9 4.8 6.1 0 12.1-.4 17.9-1.2 1 11.4 3.7 22.1 8.3 32.1 5.8 12.7 14.3 22.9 25.6 30.5 11.2 7.7 24.8 11.5 40.7 11.5 18.8 0 35.6-6.7 50.4-20 14.8-13.4 24.7-31.1 29.8-53.4 8.3-.3 16.4-1.2 24.1-2.4.8 11.8 3.5 22.9 8 33.4 5.6 12.7 13.8 22.9 24.8 30.7 11 7.8 24.3 11.7 39.9 11.7 15.9 0 30.3-4.4 43.4-13.3 13.1-8.9 23.5-21.2 31.1-36.9 7.7-15.7 11.5-33.7 11.5-53.8 0-14.6-2.8-28.3-8.3-41zm-229.5 92.5c-6.2 6.9-13.6 10.3-22 10.3-7.7 0-14.3-3.8-20-11.5-5.7-7.7-8.5-18.8-8.5-33.3 0-18.5 3.5-32.9 10.5-43 7-10.2 15.8-15.3 26.4-15.3h2c-.8 4.2-1.2 8.5-1.2 12.7 0 10.1 2.2 19.6 6.5 28.6 4.4 9 10.6 16.3 18.8 21.8-2.1 12.9-6.3 22.8-12.5 29.7zm178.9-5.2c-6.2 9.8-13.8 14.7-22.8 14.7-7.9 0-14.5-3.6-19.8-10.7-5.3-7.1-7.9-18.2-7.9-33.3 0-19 3.1-33.4 9.3-43 6.2-9.7 14.1-14.5 23.6-14.5 7.4 0 13.7 3.7 19 11.1 5.3 7.4 7.9 18.4 7.9 32.9 0 18.8-3.1 33-9.3 42.8z" fill="#0f68af"/><linearGradient id="SVGID_1_" gradientUnits="userSpaceOnUse" x1="-45.5814" y1="387.4529" x2="589.921" y2="42.1505"><stop offset="0" stop-color="#6e398e"/><stop offset=".7541" stop-color="#0f68af"/></linearGradient><path d="M292 533.3H0V0h533.3v292c0 133.3-108 241.3-241.3 241.3z" fill="url(#SVGID_1_)"/><path class="st2" d="M114.8 359.1v-185h76.6c8 0 15.3 1.7 22 5.1 6.7 3.4 12.5 7.8 17.3 13.3 4.9 5.5 8.7 11.7 11.5 18.6 2.8 6.9 4.2 14 4.2 21.1 0 7.6-1.3 15-3.9 22-2.6 7-6.3 13.2-10.9 18.6-4.7 5.4-10.3 9.7-16.8 13-6.5 3.3-13.8 4.9-21.8 4.9h-60V359h-18.2zm18.2-84.4h59.1c5.4 0 10.3-1.2 14.7-3.5 4.4-2.3 8.2-5.5 11.3-9.4 3.1-3.9 5.6-8.4 7.3-13.5 1.7-5.1 2.6-10.5 2.6-16 0-5.7-1-11.2-3-16.3-2-5.1-4.7-9.6-8.1-13.4-3.4-3.8-7.4-6.8-12-9s-9.4-3.3-14.5-3.3H133v84.4zM434.2 190.3h-65.9v168.8H350V190.3h-65.9v-16.2h150v16.2z"/><g><path class="st3" d="M626 404.3h7l5.7 15.9 5.8-15.9h6.9l-8 20.8 7 17.2L665 404h8.1l-19.3 46.8h-6.3l-8.7-21-8.8 21h-6.3L604.4 404h8l14.6 38.3 7-17.2-8-20.8zM717.6 451.3c-3.3 0-6.4-.7-9.1-2-2.7-1.3-5.1-3.1-7.1-5.3-2-2.2-3.5-4.8-4.6-7.6s-1.6-5.8-1.6-8.8c0-3.1.6-6.1 1.7-9 1.1-2.9 2.7-5.4 4.7-7.6 2-2.2 4.4-3.9 7.1-5.2 2.7-1.3 5.7-1.9 9-1.9s6.4.7 9.1 2.1c2.7 1.4 5.1 3.2 7.1 5.4s3.5 4.8 4.6 7.6c1.1 2.8 1.6 5.7 1.6 8.7 0 3.1-.6 6.1-1.7 9-1.1 2.9-2.7 5.4-4.7 7.6-2 2.2-4.4 3.9-7.2 5.2-2.7 1.1-5.7 1.8-8.9 1.8zm-14.9-23.8c0 2.2.4 4.3 1.1 6.4.7 2.1 1.7 3.9 3 5.5s2.9 2.8 4.7 3.8c1.8.9 3.9 1.4 6.2 1.4 2.4 0 4.5-.5 6.3-1.5 1.8-1 3.4-2.3 4.7-3.9 1.3-1.6 2.2-3.5 2.9-5.5s1-4.1 1-6.2c0-2.2-.4-4.4-1.1-6.4-.7-2-1.7-3.8-3-5.4-1.3-1.6-2.9-2.8-4.7-3.8-1.8-.9-3.9-1.4-6.1-1.4-2.4 0-4.5.5-6.3 1.5-1.8 1-3.4 2.3-4.7 3.9-1.3 1.6-2.3 3.4-2.9 5.4-.8 2-1.1 4.1-1.1 6.2zM768.9 450.9v-46.8h20.4c2.1 0 4.1.4 5.8 1.3 1.8.9 3.3 2 4.6 3.5 1.3 1.4 2.3 3.1 3 4.9.7 1.8 1.1 3.7 1.1 5.6 0 1.6-.2 3.1-.7 4.6-.4 1.5-1.1 2.8-1.8 4-.8 1.2-1.8 2.3-2.9 3.2-1.1.9-2.4 1.6-3.8 2l11 17.8h-8.4L787 434.7h-10.8V451h-7.3zm7.4-22.8h12.9c1.1 0 2-.2 2.9-.7.9-.5 1.6-1.1 2.2-1.9.6-.8 1.1-1.7 1.5-2.8.4-1.1.5-2.2.5-3.4 0-1.2-.2-2.3-.6-3.4-.4-1.1-1-2-1.6-2.8-.7-.8-1.5-1.4-2.4-1.9-.9-.5-1.8-.7-2.8-.7h-12.5v17.6zM833.6 450.9v-46.8h16.6c3.8 0 7.1.6 9.9 1.8 2.8 1.2 5.2 2.9 7.1 5 1.9 2.1 3.4 4.6 4.3 7.4 1 2.8 1.5 5.9 1.5 9.1 0 3.6-.5 6.8-1.6 9.7s-2.6 5.3-4.6 7.4c-2 2-4.4 3.6-7.2 4.7s-6 1.7-9.4 1.7h-16.6zm31.9-23.5c0-2.5-.3-4.7-1-6.8-.7-2.1-1.7-3.8-3-5.3s-2.9-2.6-4.8-3.5c-1.9-.8-4-1.3-6.5-1.3H841v33.8h9.2c2.5 0 4.7-.4 6.6-1.3 1.9-.9 3.5-2 4.8-3.6 1.3-1.5 2.3-3.3 2.9-5.4.7-1.9 1-4.1 1-6.6zM901.9 450.9v-46.8h19.7c2.1 0 4.1.4 5.8 1.3 1.8.9 3.3 2 4.6 3.5 1.3 1.4 2.3 3.1 3 4.9.7 1.8 1.1 3.7 1.1 5.6 0 2-.3 3.9-1 5.7-.7 1.8-1.6 3.5-2.9 4.9-1.2 1.4-2.7 2.6-4.5 3.4-1.7.9-3.7 1.3-5.8 1.3h-12.7V451h-7.3zm7.4-22.8h12.2c1.1 0 2-.2 2.9-.7.9-.4 1.6-1.1 2.2-1.8.6-.8 1.1-1.7 1.5-2.8.4-1.1.5-2.2.5-3.5 0-1.3-.2-2.5-.6-3.6s-.9-2-1.6-2.7c-.7-.8-1.5-1.4-2.4-1.8-.9-.4-1.8-.6-2.8-.6h-11.8v17.5zM964.1 450.9v-46.8h20.4c2.1 0 4.1.4 5.8 1.3 1.8.9 3.3 2 4.6 3.5 1.3 1.4 2.3 3.1 3 4.9.7 1.8 1.1 3.7 1.1 5.6 0 1.6-.2 3.1-.7 4.6-.4 1.5-1.1 2.8-1.8 4-.8 1.2-1.8 2.3-2.9 3.2-1.1.9-2.4 1.6-3.8 2l11 17.8h-8.4l-10.2-16.3h-10.8V451h-7.3zm7.4-22.8h12.9c1.1 0 2-.2 2.9-.7.9-.5 1.6-1.1 2.2-1.9.6-.8 1.1-1.7 1.5-2.8.4-1.1.5-2.2.5-3.4 0-1.2-.2-2.3-.6-3.4-.4-1.1-1-2-1.6-2.8-.7-.8-1.5-1.4-2.4-1.9-.9-.5-1.8-.7-2.8-.7h-12.5v17.6zM1061 444.4v6.5h-32.1v-46.8h31.5v6.5h-24.1v13.3h20.9v6.1h-20.9v14.3h24.7zM1116.5 415.1c-.4-.5-1.1-1-1.9-1.5-.8-.5-1.8-1.1-2.9-1.6-1.1-.5-2.4-.9-3.7-1.2-1.3-.3-2.7-.5-4.1-.5-3.1 0-5.4.6-6.9 1.7s-2.2 2.7-2.2 4.7c0 1.1.2 2.1.7 2.8.5.7 1.2 1.4 2.1 1.9 1 .6 2.2 1 3.6 1.5 1.5.4 3.1.9 5.1 1.4 2.4.6 4.5 1.2 6.4 1.9 1.9.7 3.5 1.6 4.8 2.6 1.3 1 2.3 2.3 3.1 3.7.7 1.5 1.1 3.3 1.1 5.4 0 2.4-.5 4.4-1.4 6.1-.9 1.7-2.1 3.1-3.7 4.2s-3.4 1.9-5.4 2.4c-2.1.5-4.3.8-6.7.8-3.6 0-7-.5-10.3-1.6-3.3-1.1-6.3-2.6-9-4.7l3.4-6.3c.6.6 1.4 1.2 2.5 1.9s2.3 1.4 3.8 1.9c1.4.6 3 1.1 4.7 1.5 1.7.4 3.4.6 5.2.6 2.9 0 5.1-.5 6.7-1.5 1.6-1 2.4-2.5 2.4-4.5 0-1.2-.3-2.2-.9-3-.6-.8-1.4-1.5-2.5-2.1-1.1-.6-2.4-1.1-4-1.6s-3.4-1-5.4-1.5c-2.3-.6-4.4-1.3-6.1-1.9-1.7-.7-3.2-1.5-4.3-2.5-1.1-1-2-2.1-2.6-3.4-.6-1.3-.9-2.9-.9-4.7 0-2.3.4-4.3 1.3-6.1.9-1.8 2.1-3.3 3.6-4.5 1.5-1.2 3.3-2.1 5.4-2.7 2.1-.6 4.3-.9 6.7-.9 3.2 0 6.1.5 8.8 1.5 2.7 1 5 2.3 7.1 3.8l-3.6 6zM1177.9 415.1c-.4-.5-1.1-1-1.9-1.5-.8-.5-1.8-1.1-2.9-1.6-1.1-.5-2.4-.9-3.7-1.2-1.3-.3-2.7-.5-4.1-.5-3.1 0-5.4.6-6.9 1.7s-2.2 2.7-2.2 4.7c0 1.1.2 2.1.7 2.8.5.7 1.2 1.4 2.1 1.9 1 .6 2.2 1 3.6 1.5 1.5.4 3.1.9 5.1 1.4 2.4.6 4.5 1.2 6.4 1.9 1.9.7 3.5 1.6 4.8 2.6 1.3 1 2.3 2.3 3.1 3.7.7 1.5 1.1 3.3 1.1 5.4 0 2.4-.5 4.4-1.4 6.1-.9 1.7-2.1 3.1-3.7 4.2s-3.4 1.9-5.4 2.4c-2.1.5-4.3.8-6.7.8-3.6 0-7-.5-10.3-1.6-3.3-1.1-6.3-2.6-9-4.7l3.4-6.3c.6.6 1.4 1.2 2.5 1.9s2.3 1.4 3.8 1.9c1.4.6 3 1.1 4.7 1.5 1.7.4 3.4.6 5.2.6 2.9 0 5.1-.5 6.7-1.5 1.6-1 2.4-2.5 2.4-4.5 0-1.2-.3-2.2-.9-3-.6-.8-1.4-1.5-2.5-2.1-1.1-.6-2.4-1.1-4-1.6s-3.4-1-5.4-1.5c-2.3-.6-4.4-1.3-6.1-1.9-1.7-.7-3.2-1.5-4.3-2.5-1.1-1-2-2.1-2.6-3.4-.6-1.3-.9-2.9-.9-4.7 0-2.3.4-4.3 1.3-6.1.9-1.8 2.1-3.3 3.6-4.5 1.5-1.2 3.3-2.1 5.4-2.7 2.1-.6 4.3-.9 6.7-.9 3.2 0 6.1.5 8.8 1.5 2.7 1 5 2.3 7.1 3.8l-3.6 6z"/><g><path class="st3" d="M609.4 532.6v-46.8h19.7c2.1 0 4.1.4 5.8 1.3 1.8.9 3.3 2 4.6 3.5 1.3 1.4 2.3 3.1 3 4.9.7 1.8 1.1 3.7 1.1 5.6 0 2-.3 3.9-1 5.7-.7 1.8-1.6 3.5-2.9 4.9-1.2 1.4-2.7 2.6-4.5 3.4-1.7.9-3.7 1.3-5.8 1.3h-12.7v16.3h-7.3zm7.4-22.9H629c1.1 0 2-.2 2.9-.7.9-.4 1.6-1.1 2.2-1.8.6-.8 1.1-1.7 1.5-2.8.4-1.1.5-2.2.5-3.5 0-1.3-.2-2.5-.6-3.6-.4-1.1-.9-2-1.6-2.7-.7-.8-1.5-1.4-2.4-1.8-.9-.4-1.8-.6-2.8-.6h-11.8v17.5zM671.6 532.6v-46.8h7.4V526h25.1v6.5h-32.5zM747.9 526.2c2.5 0 4.5-.5 6.1-1.5 1.6-1 2.9-2.2 3.9-3.8 1-1.6 1.7-3.3 2.1-5.3.4-2 .6-4.1.6-6.2v-23.7h7.5v23.7c0 3.2-.4 6.2-1.1 9.1-.7 2.8-1.9 5.3-3.6 7.5-1.6 2.1-3.7 3.8-6.3 5-2.6 1.2-5.7 1.8-9.3 1.8-3.7 0-6.9-.6-9.5-1.9-2.6-1.3-4.7-3-6.2-5.2-1.6-2.2-2.7-4.7-3.4-7.5-.7-2.8-1.1-5.7-1.1-8.8v-23.7h7.4v23.7c0 2.2.2 4.2.6 6.2.4 2 1.1 3.8 2.1 5.3 1 1.6 2.3 2.8 4 3.8 1.7 1.1 3.8 1.5 6.2 1.5zM831.9 526.8c-4 4.1-8.5 6.1-13.7 6.1-3.1 0-6-.6-8.7-1.9-2.7-1.3-5-3-7-5.2s-3.5-4.7-4.7-7.7c-1.1-2.9-1.7-5.9-1.7-9.1 0-3.2.6-6.2 1.7-9 1.1-2.9 2.7-5.4 4.7-7.5 2-2.2 4.3-3.9 7.1-5.1 2.7-1.3 5.7-1.9 8.9-1.9 4.5 0 8.2.9 11.3 2.8 3 1.9 5.3 4.3 6.9 7.4l-5.7 4.1c-1.3-2.6-3-4.5-5.3-5.7-2.2-1.3-4.7-1.9-7.4-1.9-2.2 0-4.2.5-6 1.4-1.8.9-3.3 2.2-4.6 3.8-1.3 1.6-2.3 3.4-2.9 5.4-.7 2.1-1 4.2-1 6.5 0 2.4.4 4.6 1.2 6.7.8 2.1 1.8 3.9 3.2 5.4 1.3 1.5 2.9 2.8 4.8 3.7 1.8.9 3.8 1.4 6 1.4 2.4 0 4.7-.5 6.8-1.6 2.2-1.1 4.3-2.8 6.2-5.2v-5h-10v-5.5h16v23.7h-6.2v-6.1zM867.6 532.6v-46.8h7.4v46.8h-7.4zM914.1 499.6v33h-7.4v-46.8h5.8l26.8 33.8v-33.7h7.5v46.8h-6.1l-26.6-33.1zM1006.1 496.7c-.4-.5-1.1-1-1.9-1.5-.8-.5-1.8-1.1-2.9-1.6-1.1-.5-2.4-.9-3.7-1.2-1.3-.3-2.7-.5-4.1-.5-3.1 0-5.4.6-6.9 1.7s-2.2 2.7-2.2 4.7c0 1.1.2 2.1.7 2.8.5.7 1.2 1.4 2.1 1.9 1 .6 2.2 1 3.6 1.5 1.5.4 3.1.9 5.1 1.4 2.4.6 4.5 1.2 6.4 1.9 1.9.7 3.5 1.6 4.8 2.6 1.3 1 2.3 2.3 3.1 3.7.7 1.5 1.1 3.3 1.1 5.4 0 2.4-.5 4.4-1.4 6.1-.9 1.7-2.1 3.1-3.7 4.2s-3.4 1.9-5.4 2.4-4.3.8-6.7.8c-3.6 0-7-.5-10.3-1.6-3.3-1.1-6.3-2.6-9-4.7l3.4-6.3c.6.6 1.4 1.2 2.5 1.9s2.3 1.4 3.8 1.9c1.4.6 3 1.1 4.7 1.5 1.7.4 3.4.6 5.2.6 2.9 0 5.1-.5 6.7-1.5 1.6-1 2.4-2.5 2.4-4.5 0-1.2-.3-2.2-.9-3-.6-.8-1.4-1.5-2.5-2.1-1.1-.6-2.4-1.1-4-1.6s-3.4-1-5.4-1.5c-2.3-.6-4.4-1.3-6.1-1.9-1.7-.7-3.2-1.5-4.3-2.5-1.1-1-2-2.1-2.6-3.4s-.9-2.9-.9-4.7c0-2.3.4-4.3 1.3-6.1s2.1-3.3 3.6-4.5c1.5-1.2 3.3-2.1 5.4-2.7 2.1-.6 4.3-.9 6.7-.9 3.2 0 6.1.5 8.8 1.5 2.7 1 5 2.3 7.1 3.8l-3.6 6z"/></g></g></g></svg>